<?xml version="1.0" standalone="no"?>
<!DOCTYPE svg PUBLIC "-//W3C//DTD SVG 20010904//EN"
 "http://www.w3.org/TR/2001/REC-SVG-20010904/DTD/svg10.dtd">
<svg version="1.0" xmlns="http://www.w3.org/2000/svg"
 width="732.000000pt" height="732.000000pt" viewBox="0 0 732.000000 732.000000"
 preserveAspectRatio="xMidYMid meet">
<metadata>
Created by potrace 1.14, written by Peter Selinger 2001-2017
</metadata>
<g transform="translate(0.000000,732.000000) scale(0.100000,-0.100000)"
fill="#000000" stroke="none">
<path d="M0 6457 c0 -851 0 -862 20 -875 26 -16 26 -49 0 -57 -20 -6 -20 -15
-20 -1942 0 -1832 1 -1936 18 -1949 16 -12 16 -13 -1 -19 -14 -6 -17 -19 -17
-71 l0 -64 63 2 c35 1 69 -2 75 -6 16 -10 152 -14 158 -5 2 4 -2 10 -8 12 -7
3 -3 6 10 6 24 1 31 21 7 21 -21 0 -19 12 5 33 11 9 20 23 20 31 0 8 16 23 36
32 l36 17 22 -28 c15 -19 28 -26 39 -22 11 4 17 1 17 -8 0 -10 10 -15 28 -15
37 0 62 41 44 70 -15 25 -15 30 2 30 8 0 17 -7 20 -16 5 -12 14 -15 36 -10 17
3 30 1 30 -4 0 -6 5 -10 11 -10 15 0 34 -22 34 -40 0 -9 7 -14 18 -12 9 2 17
-2 17 -8 0 -5 14 -10 30 -10 17 0 30 5 30 10 0 6 11 10 24 10 14 0 31 7 40 15
8 8 22 15 30 15 9 0 22 13 31 30 11 21 25 31 53 37 69 13 384 4 400 -12 4 -4
-1 -12 -11 -20 -15 -11 -16 -14 -2 -25 14 -11 13 -14 -1 -25 -19 -13 -10 -40
9 -28 7 4 49 8 95 9 60 1 88 6 101 18 10 9 23 16 29 16 6 0 19 10 29 23 35 42
63 60 95 61 26 1 34 6 36 23 7 49 124 62 225 23 36 -13 70 -20 87 -17 22 5 29
1 38 -18 7 -16 8 -26 1 -30 -5 -4 -7 -10 -4 -15 9 -14 -16 -23 -28 -11 -13 13
-54 15 -59 3 -1 -5 -29 -21 -61 -36 -63 -30 -74 -44 -58 -75 12 -21 22 -22
128 -6 29 5 51 2 73 -10 22 -12 43 -14 71 -10 42 7 120 -12 99 -25 -8 -5 -5
-9 10 -13 12 -3 24 -15 27 -26 6 -22 26 -30 21 -8 -3 13 36 57 52 57 13 0 13
-13 -1 -27 -6 -6 -9 -21 -7 -34 3 -20 10 -25 53 -31 28 -4 86 -12 130 -18 44
-7 92 -13 106 -14 14 -2 31 -6 37 -10 7 -4 17 -4 23 0 8 4 9 -6 5 -35 -3 -22
-9 -59 -12 -81 l-6 -40 -27 19 c-37 27 -119 32 -134 9 -19 -29 17 -58 70 -56
23 1 43 6 43 12 0 6 7 0 16 -12 8 -12 20 -19 26 -16 7 5 9 -1 5 -17 -3 -13 -9
-60 -13 -104 -4 -54 -13 -88 -26 -106 -12 -16 -18 -39 -17 -60 5 -63 -1 -89
-18 -95 -64 -21 -83 -50 -57 -89 14 -22 13 -25 -36 -72 -59 -54 -70 -61 -70
-40 0 26 -40 27 -87 1 -46 -24 -106 -31 -132 -15 -16 10 -81 -3 -91 -19 -5 -8
-26 -9 -66 -5 -112 13 -148 13 -185 0 -21 -8 -46 -12 -56 -10 -10 3 -34 6 -55
8 -20 3 -52 16 -71 31 -18 14 -41 26 -49 26 -9 0 -31 7 -50 15 -56 23 -190 36
-208 21 -21 -18 -45 -26 -125 -40 -40 -7 -85 -9 -105 -4 -22 4 -57 2 -96 -8
-87 -21 -173 -15 -192 14 -12 19 -12 22 0 22 8 0 33 19 57 41 32 31 40 44 30
50 -7 4 -10 11 -6 15 4 4 2 13 -4 21 -13 15 -49 18 -49 4 0 -5 -24 -12 -53
-15 -29 -4 -66 -14 -81 -21 -16 -8 -37 -15 -47 -15 -11 0 -19 -7 -19 -16 0 -8
4 -12 10 -9 17 10 11 -12 -7 -31 -10 -10 -18 -21 -18 -26 0 -25 -61 -36 -96
-18 -26 15 -10 44 33 60 l33 13 -43 8 c-29 6 -60 4 -95 -5 -48 -13 -54 -12
-73 5 -11 10 -28 19 -37 19 -9 0 -17 5 -17 10 0 6 -9 10 -20 10 -13 0 -20 7
-20 20 0 20 -26 39 -48 34 -7 -1 -8 0 -2 3 20 9 10 30 -24 48 -32 17 -66 16
-66 -3 0 -5 15 -16 33 -25 22 -11 26 -16 13 -16 -13 -1 -16 -6 -12 -17 10 -26
-16 -72 -44 -79 -24 -6 -24 -7 -6 -20 17 -13 16 -14 -15 -19 -19 -3 -62 -10
-95 -16 -34 -6 -69 -8 -78 -4 -15 6 -16 -13 -14 -222 l3 -229 120 -2 c242 -5
343 -6 480 -4 77 1 151 1 165 -1 14 -1 57 0 95 1 53 3 63 5 40 10 -29 7 -28 7
13 12 23 2 42 1 42 -3 0 -12 107 -10 216 4 80 10 97 9 104 -3 7 -11 49 -14
202 -16 106 -1 229 -4 273 -6 52 -3 66 -2 40 3 l-40 7 42 2 c23 0 43 6 45 13
3 9 15 9 48 0 24 -6 49 -7 55 -3 17 14 135 1 135 -15 0 -11 17 -14 69 -14 39
0 73 5 76 10 3 6 -3 10 -15 10 -12 0 -18 5 -15 10 9 14 62 12 68 -2 4 -10 8
-10 15 0 6 9 21 12 41 9 17 -3 31 -1 31 4 0 6 5 7 10 4 6 -3 10 -1 10 6 0 10
3 10 11 2 13 -13 8 -64 -14 -138 l-14 -50 1355 -3 c1006 -1 1358 1 1363 9 4 7
17 9 32 5 27 -6 42 0 127 55 71 45 168 99 177 99 5 0 0 -5 -9 -11 -10 -5 -18
-15 -18 -21 0 -9 3 -9 11 -1 6 6 18 9 26 6 7 -3 13 -2 12 3 -3 21 4 21 54 7
28 -8 61 -16 72 -17 11 -2 20 -5 20 -6 0 -8 236 -7 240 1 8 11 45 12 45 0 0
-12 53 -11 61 1 3 5 32 10 63 10 37 0 63 6 73 16 11 11 17 12 22 3 4 -6 41
-15 82 -18 41 -3 77 -11 81 -16 4 -7 35 -7 95 0 97 10 178 10 236 -2 25 -5 46
-4 61 4 16 9 48 11 102 7 170 -14 384 -17 384 -6 0 7 9 9 22 4 12 -3 48 -6 80
-5 32 1 58 -3 58 -8 0 -5 8 -8 18 -7 15 3 17 23 20 234 l2 232 -45 0 c-26 0
-55 4 -65 10 -12 6 -29 6 -50 -2 -25 -8 -34 -8 -40 2 -6 9 -9 9 -12 0 -9 -27
-206 -27 -273 1 -11 4 -36 11 -55 15 -19 3 -46 19 -61 35 -15 16 -36 29 -48
29 -11 0 -24 6 -28 14 -5 9 -30 15 -69 17 -54 4 -63 1 -87 -24 -16 -15 -38
-27 -50 -27 -13 0 -29 -6 -35 -12 -10 -10 -15 -10 -20 -1 -4 6 -19 14 -34 18
-15 4 -29 13 -32 21 -3 8 -16 14 -28 14 -15 0 -19 -3 -11 -8 7 -4 -16 -9 -50
-11 -95 -4 -95 -4 -90 -18 3 -7 10 -10 15 -7 6 4 5 -3 -1 -15 -13 -23 -26 -27
-37 -10 -4 8 -9 7 -15 -2 -6 -10 -9 -10 -9 -2 0 6 5 15 10 18 13 8 13 25 -1
25 -6 0 -25 10 -42 22 -22 15 -28 17 -18 5 13 -17 4 -24 -15 -9 -5 4 1 -3 13
-15 13 -12 23 -26 23 -31 0 -20 -86 -31 -174 -23 -16 2 3 73 25 97 l21 22 35
-19 c52 -29 30 -5 -27 30 -45 28 -50 29 -50 11 0 -32 -18 -32 -35 1 -9 17 -14
33 -11 37 3 3 1 11 -5 19 -6 7 -8 13 -4 13 5 0 0 9 -9 19 -13 14 -26 18 -50
14 -21 -3 -45 1 -66 12 -40 21 -138 93 -165 121 -11 12 -38 39 -59 62 l-39 41
21 48 c11 26 23 66 27 88 3 22 25 78 48 124 34 71 42 97 47 170 4 47 17 115
30 151 26 76 23 119 -15 214 -27 67 -31 96 -15 96 6 0 10 -6 10 -13 0 -7 18
-57 40 -110 34 -85 135 -393 177 -542 51 -184 48 -178 76 -150 9 9 44 17 89
21 40 3 92 12 116 20 23 8 60 14 80 14 24 0 53 10 78 26 38 25 40 29 39 72 -2
33 -8 50 -24 63 -19 16 -20 18 -4 22 10 3 34 6 53 6 19 1 44 3 55 4 18 4 45
-13 45 -28 0 -13 -26 -32 -53 -39 -35 -8 -34 -29 3 -76 21 -27 41 -40 66 -45
20 -3 43 -13 51 -21 17 -17 51 -18 89 -4 15 6 35 8 43 4 9 -4 21 -8 26 -8 6
-1 10 -12 10 -25 0 -15 8 -27 23 -32 12 -5 22 -15 22 -23 0 -7 6 -16 13 -18
17 -7 62 6 62 17 0 18 68 105 82 105 7 0 13 4 13 9 0 5 12 12 28 15 167 31
161 30 196 14 29 -14 37 -15 60 -2 46 23 120 29 135 10 7 -9 18 -16 23 -16 13
0 4 473 -11 535 -6 28 -12 55 -13 62 -1 6 -8 9 -15 6 -8 -3 -20 3 -28 13 -10
14 -14 15 -15 5 0 -8 -3 -11 -7 -7 -12 11 -12 40 -1 53 7 9 7 17 -2 28 -10 12
-10 15 4 15 9 0 16 -5 16 -10 0 -7 6 -7 19 -1 15 9 20 7 24 -9 3 -11 12 -20
21 -20 15 0 16 76 16 815 l0 814 -37 7 c-21 4 -50 13 -65 21 -26 12 -164 43
-215 46 -25 2 -43 17 -22 18 8 0 3 5 -10 10 -18 7 -27 6 -32 -3 -7 -10 -12
-11 -29 0 -44 27 -110 -3 -110 -51 0 -21 -28 -76 -53 -103 -129 -139 -177
-201 -177 -228 0 -8 -17 -28 -37 -45 -66 -55 -84 -75 -104 -118 -10 -23 -24
-45 -29 -48 -19 -12 -56 -78 -95 -168 -47 -110 -59 -119 -128 -101 -77 20
-137 100 -137 183 0 32 -25 87 -60 131 -16 21 -30 47 -30 58 0 12 -5 24 -10
27 -11 7 -12 149 -3 186 15 58 94 -8 118 -99 8 -31 22 -77 30 -102 8 -25 15
-53 15 -63 0 -34 38 -76 65 -73 37 4 69 37 130 135 59 94 102 158 145 210 27
35 50 67 50 71 0 3 23 31 51 61 28 30 59 70 69 89 10 19 32 48 49 64 17 16 34
44 37 63 3 18 10 33 15 33 5 0 9 7 9 15 0 8 7 15 15 15 31 0 92 39 120 77 16
21 34 41 39 45 69 47 206 186 206 209 0 10 3 24 6 33 4 11 1 16 -10 16 -22 0
-20 16 5 51 18 26 24 28 60 23 36 -6 42 -3 86 40 27 25 54 46 61 46 10 0 12
99 10 478 l-3 477 -21 3 c-16 2 -20 8 -17 22 4 15 -1 20 -23 25 -16 3 -42 10
-57 15 -16 5 -35 6 -42 4 -18 -7 -115 38 -115 53 0 7 -6 13 -14 13 -40 0 -22
74 20 84 28 7 74 -2 74 -15 0 -5 10 -9 21 -9 12 0 28 -8 35 -17 9 -12 16 -14
21 -7 5 6 33 17 63 25 l55 14 3 203 c2 161 0 203 -10 200 -7 -3 -13 -10 -13
-16 0 -5 -3 -14 -7 -18 -5 -4 -8 -16 -8 -26 0 -11 -7 -18 -19 -18 -10 0 -24
-7 -31 -15 -13 -16 -35 -21 -26 -6 4 5 -3 7 -14 4 -11 -3 -18 -9 -15 -13 5 -9
-18 -20 -41 -20 -8 0 -14 5 -14 11 0 17 -32 38 -57 39 -12 0 -23 4 -25 9 -1 5
-14 11 -28 13 -20 2 -26 -2 -28 -19 -2 -13 -8 -23 -13 -23 -5 0 -9 -6 -9 -14
0 -7 -12 -16 -27 -19 -40 -8 -156 8 -161 21 -2 7 -8 12 -13 12 -6 0 -5 -8 1
-20 6 -11 17 -20 25 -20 11 0 15 -13 15 -51 0 -34 4 -48 11 -43 14 8 69 -54
69 -78 0 -9 -4 -20 -10 -23 -5 -3 -10 -17 -10 -30 0 -25 -33 -51 -50 -40 -6 3
-10 1 -10 -4 0 -18 -28 -12 -52 12 -13 12 -23 31 -22 43 1 15 -4 20 -20 19
-12 -1 -31 2 -43 6 -14 5 -23 5 -23 -1 0 -6 7 -10 14 -10 12 0 13 -6 5 -30 -6
-16 -14 -28 -18 -25 -4 2 -17 -24 -28 -58 -22 -67 -53 -91 -53 -41 l0 28 -22
-24 -22 -23 22 -18 c12 -9 22 -24 22 -33 0 -9 7 -16 15 -16 8 0 15 -9 15 -21
0 -11 5 -29 10 -40 8 -13 7 -19 0 -19 -16 0 -40 -26 -40 -43 0 -8 -9 -17 -20
-20 -11 -3 -22 -13 -25 -24 -4 -10 -12 -30 -20 -45 -13 -26 -13 -28 5 -28 10
0 22 -9 25 -20 3 -11 11 -20 16 -20 6 0 7 -4 4 -10 -9 -14 18 -13 33 2 8 8 22
1 57 -33 25 -24 45 -52 45 -61 0 -10 6 -18 13 -18 32 -1 76 -78 45 -81 -38 -3
-78 4 -115 22 -24 10 -47 19 -53 19 -5 0 -10 8 -10 19 0 22 -45 34 -72 20 -12
-7 -20 -4 -27 8 -5 10 -13 14 -17 10 -5 -5 -2 -12 5 -16 11 -7 11 -10 0 -17
-8 -4 -15 -2 -17 5 -3 8 -13 22 -23 32 -11 11 -19 24 -19 29 0 6 -6 10 -13 10
-18 0 -37 58 -37 113 0 66 -14 97 -45 97 -14 0 -25 4 -25 9 0 10 -34 23 -73
27 -21 2 -28 -3 -33 -22 -7 -28 -32 -44 -69 -44 -29 0 -45 27 -24 41 10 7 6 8
-11 4 -19 -4 -31 0 -44 14 -11 12 -25 21 -33 21 -8 0 -29 11 -46 24 -47 35
-83 50 -170 71 -56 13 -83 16 -95 9 -25 -16 -25 -32 0 -39 33 -10 58 -35 51
-51 -3 -8 1 -14 9 -14 7 0 18 -8 23 -17 13 -21 4 -95 -8 -75 -5 6 -15 12 -22
12 -12 0 -12 -6 2 -36 20 -41 9 -71 -26 -67 -13 2 -21 -3 -21 -12 0 -18 -14
-19 -41 -4 -12 6 -18 17 -15 25 3 8 -1 14 -8 14 -8 0 -17 7 -20 16 -3 9 -11
14 -18 12 -18 -6 -20 -135 -3 -173 7 -16 22 -52 33 -78 16 -41 21 -46 32 -32
7 8 18 15 25 15 7 0 12 8 11 17 -2 25 39 28 62 5 12 -12 16 -25 11 -38 -4 -10
-8 -31 -8 -45 -1 -14 -7 -34 -15 -45 -12 -15 -18 -17 -33 -8 -16 10 -21 8 -31
-16 -11 -23 -9 -43 8 -116 11 -49 27 -125 36 -168 8 -44 21 -91 29 -105 15
-31 40 -127 50 -193 7 -45 6 -47 -24 -62 -26 -14 -31 -14 -31 -2 0 7 -10 16
-23 20 -18 4 -33 26 -60 83 -56 121 -133 368 -156 498 -4 22 -21 60 -37 84
-41 62 -67 113 -68 136 -1 13 -7 19 -19 17 -20 -3 -38 35 -42 88 -2 19 -6 43
-10 52 -4 9 -4 22 0 28 3 5 -1 10 -11 10 -14 0 -16 7 -11 37 4 21 2 42 -5 50
-8 10 -6 13 11 13 25 0 26 7 7 51 -9 21 -21 33 -36 34 -17 1 -20 -2 -16 -19 3
-12 2 -27 -3 -34 -6 -10 -11 -5 -19 15 -21 55 -23 71 -8 85 13 13 8 14 -36 10
-32 -3 -49 -1 -45 5 3 5 0 10 -8 10 -9 0 -15 -10 -15 -24 0 -12 -6 -23 -12
-24 -7 0 -22 -3 -33 -5 -11 -2 -29 -6 -40 -8 -11 -2 -33 -8 -49 -15 -23 -9
-26 -14 -16 -26 6 -8 9 -19 5 -25 -3 -5 -1 -10 4 -10 17 0 13 -67 -4 -74 -8
-3 -15 -18 -15 -34 0 -15 -6 -34 -12 -40 -10 -10 -10 -15 -1 -20 6 -4 14 -25
18 -47 5 -30 4 -36 -4 -25 -9 12 -11 8 -11 -16 0 -20 -6 -34 -16 -38 -26 -10
-82 -7 -89 5 -4 6 -13 8 -21 5 -23 -9 -46 4 -34 19 8 9 8 15 0 20 -17 11 -11
53 11 74 21 19 20 59 0 47 -5 -3 -7 4 -4 16 6 20 4 21 -35 14 -29 -4 -42 -3
-42 5 0 9 -4 9 -14 0 -7 -6 -21 -9 -29 -5 -10 4 -26 -4 -41 -21 -23 -25 -27
-26 -41 -11 -9 9 -13 16 -9 16 3 0 1 6 -5 14 -7 8 -35 17 -63 21 -27 4 -58 15
-68 25 -10 10 -30 22 -46 27 -22 8 -28 16 -26 33 2 20 -1 22 -32 18 -22 -2
-32 0 -29 7 3 5 0 4 -8 -3 -12 -11 -12 -14 1 -22 10 -7 4 -8 -20 -4 -21 3 -30
2 -23 -3 7 -5 9 -14 4 -22 -7 -11 -13 -7 -25 15 -18 34 -20 29 -5 -14 6 -18
16 -29 22 -25 6 3 7 1 3 -5 -10 -17 41 -87 137 -186 47 -48 80 -89 73 -91 -97
-27 -136 -52 -269 -174 -94 -85 -203 -161 -329 -231 l-78 -42 -1 39 c-1 21 0
50 1 65 2 39 -9 53 -26 31 -8 -11 -13 -13 -14 -5 0 7 -13 12 -32 11 l-33 -1
28 -10 c15 -5 27 -16 27 -24 0 -8 7 -14 16 -14 9 0 12 -5 8 -12 -11 -17 -12
-48 -2 -42 4 3 8 2 9 -3 0 -4 2 -15 4 -24 3 -18 -61 -54 -117 -64 -31 -6 -34
-4 -46 28 -6 18 -12 43 -12 55 0 13 -6 22 -16 22 -13 0 -15 -9 -10 -52 3 -29
7 -63 9 -75 1 -13 5 -23 8 -23 4 0 9 -9 12 -20 3 -11 0 -20 -6 -20 -9 0 -8 -3
0 -8 7 -4 24 -66 39 -137 14 -72 47 -218 74 -325 27 -107 51 -208 54 -225 3
-16 8 -41 11 -55 6 -24 6 -24 -7 -5 -7 11 -13 24 -13 28 0 4 -5 11 -10 15 -5
4 -10 13 -11 20 -1 6 -2 21 -2 33 -1 12 -6 17 -14 13 -8 -5 -9 0 -6 14 4 12 3
22 -2 22 -4 0 -10 14 -14 31 -5 26 -9 29 -28 24 -16 -4 -19 -4 -9 3 18 13 23
62 6 62 -7 0 -16 6 -18 13 -4 9 -8 8 -16 -3 -7 -10 -6 -17 2 -22 8 -5 7 -8 -4
-8 -9 0 -20 -7 -23 -16 -4 -12 -2 -15 9 -10 11 4 15 -1 15 -18 0 -13 -7 -27
-16 -30 -15 -6 -15 -9 1 -33 12 -18 14 -28 7 -31 -7 -2 -8 -11 -2 -27 5 -14 5
-27 0 -30 -4 -3 -11 8 -15 25 -4 16 -10 30 -15 30 -4 0 -2 -19 5 -42 92 -303
197 -513 466 -928 76 -118 148 -231 159 -251 10 -21 25 -43 33 -50 14 -15 67
-102 67 -111 0 -3 -9 -8 -20 -11 -11 -3 -18 -2 -15 3 2 4 -10 23 -28 42 -17
19 -41 51 -51 71 -11 19 -24 33 -29 30 -6 -3 -7 -1 -3 5 7 12 -14 51 -47 89
-11 12 -25 33 -32 45 -6 13 -17 22 -24 20 -7 -1 -10 2 -7 7 3 5 -1 14 -9 21
-8 7 -13 16 -10 20 2 4 -8 13 -23 20 -25 11 -26 13 -7 20 17 6 16 8 -10 18
-17 6 -24 11 -17 11 6 1 12 5 12 9 0 16 -37 52 -44 44 -5 -4 -7 0 -6 8 1 8 2
22 1 30 -1 13 -2 13 -12 0 -8 -12 -10 -12 -8 5 2 32 0 46 -9 41 -4 -2 -16 13
-26 35 -11 21 -27 41 -37 44 -10 4 -18 9 -17 13 4 16 -15 52 -27 52 -18 0 -33
28 -30 57 1 14 -5 25 -16 28 -9 3 -16 13 -15 23 2 9 -5 23 -16 30 -10 7 -16
17 -13 22 3 4 -1 10 -9 13 -9 4 -12 14 -9 27 4 16 2 19 -12 13 -13 -4 -16 -3
-11 6 4 6 2 18 -4 26 -6 8 -9 19 -5 25 3 5 -1 10 -11 10 -14 0 -15 2 -3 18 7
9 10 14 5 10 -12 -10 -35 16 -34 38 0 11 -3 28 -7 38 -6 15 -5 17 5 11 9 -6
11 -4 6 4 -5 7 -14 10 -22 7 -7 -3 -16 0 -20 6 -4 6 -3 8 3 5 6 -4 13 2 16 13
3 11 0 23 -5 27 -7 4 -8 1 -3 -7 6 -9 4 -11 -4 -6 -7 5 -10 15 -7 23 4 11 1
13 -14 8 -11 -3 -28 -1 -37 5 -15 8 -13 9 10 4 20 -5 27 -2 27 9 0 32 -13 47
-40 47 -50 0 -59 -8 -49 -43 5 -17 6 -33 4 -36 -8 -7 -10 -1 -33 74 -29 100
-46 181 -87 424 -53 316 -50 473 13 569 20 31 5 28 -76 -11 -48 -24 -78 -32
-106 -30 -22 1 -46 -3 -53 -9 -9 -7 -17 -7 -27 1 -10 8 -19 6 -39 -9 -26 -21
-79 -35 -177 -49 -63 -9 -95 -1 -102 27 -4 15 -12 19 -32 15 -29 -6 -32 -13
-14 -31 9 -9 8 -12 -5 -12 -9 0 -17 -5 -17 -11 0 -5 -8 -9 -17 -8 -10 1 -31
-3 -47 -10 -15 -6 -33 -10 -40 -9 -6 1 -25 -6 -43 -15 -31 -17 -59 -24 -36 -9
16 10 5 62 -12 55 -11 -4 -12 0 -3 19 11 22 22 26 112 38 71 9 105 18 120 32
12 10 29 17 38 15 22 -6 59 20 52 37 -3 8 0 17 7 22 7 4 10 3 5 -4 -8 -14 15
-25 85 -42 50 -11 61 -11 89 4 18 9 41 16 51 16 25 0 50 11 44 19 -2 4 9 6 24
3 21 -3 35 3 50 20 20 20 31 23 103 23 57 1 82 -3 85 -12 8 -21 31 -15 77 20
39 28 43 36 42 69 0 21 -4 38 -8 38 -5 0 -8 10 -8 22 0 16 8 10 33 -28 17 -27
32 -53 32 -59 0 -5 7 -10 15 -10 9 0 14 -8 12 -19 -3 -13 2 -17 20 -14 13 2
22 9 21 16 -2 6 4 12 13 12 9 0 12 -5 8 -12 -4 -7 -3 -8 4 -4 6 4 9 13 5 21
-4 11 0 14 13 10 11 -3 6 1 -11 9 -21 11 -25 15 -12 16 11 0 17 5 14 13 -2 6
-10 11 -16 9 -7 -1 -10 2 -6 8 4 6 1 19 -7 28 -12 15 -11 16 5 3 10 -8 17 -9
17 -3 0 6 -5 14 -10 17 -6 4 -8 11 -5 16 4 5 -1 9 -10 9 -9 0 -13 5 -10 10 4
6 -6 10 -24 10 -28 0 -49 19 -49 45 0 5 -9 12 -19 16 -17 7 -17 8 2 9 11 1 15
4 7 7 -8 3 1 17 26 41 22 21 42 45 45 55 4 9 16 17 28 17 16 0 20 5 16 20 -3
11 -1 20 5 20 5 0 6 5 3 10 -3 6 1 10 9 10 8 0 20 8 25 18 6 9 11 14 11 10 0
-4 12 -3 26 2 16 7 23 7 19 0 -3 -6 4 -10 16 -10 17 0 20 3 12 11 -9 9 -8 15
3 26 12 13 17 13 32 1 15 -12 15 -11 -1 14 l-17 28 24 -10 c18 -7 26 -5 30 6
3 8 13 14 22 14 13 0 14 3 4 15 -8 9 -8 15 -2 15 21 0 78 45 115 92 33 42 35
48 17 48 -13 0 -18 5 -14 14 4 11 0 13 -16 9 -13 -4 -23 -16 -27 -35 -4 -22
-8 -26 -15 -16 -7 10 -11 10 -15 1 -2 -7 -13 -13 -24 -13 -11 0 -19 -7 -19
-16 0 -10 -6 -14 -14 -11 -8 3 -17 -1 -20 -10 -4 -9 -13 -13 -22 -9 -9 3 -28
9 -42 13 -23 5 -25 4 -15 -8 14 -17 1 -45 -16 -35 -6 4 -14 0 -17 -8 -8 -21
-24 -10 -25 17 -1 20 -1 20 -10 -4 -10 -27 -46 -49 -79 -49 -10 0 -21 -4 -25
-9 -3 -5 -18 -10 -33 -10 -15 0 -37 -2 -49 -5 -14 -3 -24 1 -27 11 -5 12 -9
13 -21 3 -12 -10 -15 -10 -15 1 0 11 -2 11 -10 -1 -5 -8 -10 -10 -10 -5 0 14
-90 15 -91 1 0 -6 -4 -1 -9 12 -6 13 -17 22 -26 20 -9 -2 -21 6 -28 17 -6 11
-14 22 -17 25 -3 3 -9 13 -12 23 -4 11 -16 21 -27 24 -11 3 -20 14 -20 24 0
10 -5 21 -12 25 -7 4 -8 3 -4 -4 4 -7 5 -12 1 -12 -3 0 -10 11 -15 24 -5 14
-22 33 -37 43 -15 10 -35 25 -44 34 -19 19 -44 103 -34 118 3 6 1 11 -4 11 -6
0 -11 7 -11 16 0 8 5 12 10 9 6 -3 10 -1 10 4 0 6 -7 11 -16 11 -10 0 -14 5
-10 16 3 8 2 13 -3 10 -5 -3 -11 1 -15 9 -4 12 4 15 43 15 61 0 137 23 166 50
32 30 73 139 56 150 -9 5 -9 10 -3 14 6 3 13 24 17 45 7 44 -9 78 -59 121 -44
38 -84 51 -125 43 -20 -4 -41 -6 -48 -5 -7 2 -17 -7 -23 -18 -6 -11 -16 -20
-22 -20 -17 0 -3 183 20 255 30 98 63 141 134 175 35 17 74 32 88 35 13 2 26
9 28 15 2 5 14 10 27 10 13 0 26 4 30 9 3 5 18 8 33 7 15 -2 38 4 52 12 l25
16 -20 -23 c-19 -23 -19 -23 -1 -14 10 6 28 8 39 5 14 -3 18 -1 13 6 -4 7 -1
12 9 12 9 0 26 6 38 12 12 7 29 13 37 14 28 2 80 16 80 23 0 13 132 10 146 -3
7 -8 10 -16 7 -20 -4 -3 1 -6 10 -6 19 0 34 -24 41 -66 2 -16 5 -30 6 -31 2
-2 3 -6 5 -10 2 -9 11 -33 30 -83 24 -62 39 -115 37 -127 -2 -7 2 -13 8 -13 5
0 10 -11 10 -24 0 -13 11 -48 25 -78 14 -29 25 -61 25 -70 0 -10 6 -18 13 -18
9 0 8 -3 -2 -9 -11 -7 -9 -16 10 -50 12 -22 26 -41 29 -41 7 0 11 -19 12 -67
0 -22 4 -30 12 -25 6 3 19 7 29 7 9 0 16 4 15 10 -2 5 -9 9 -15 7 -7 -2 -13 2
-13 8 0 5 5 9 12 7 6 -1 12 11 12 28 1 25 5 29 26 29 14 0 28 5 32 10 5 8 8 7
8 -1 0 -6 -4 -14 -10 -18 -13 -8 -1 -35 16 -35 8 0 14 7 14 15 0 18 24 20 37
3 6 -7 15 -26 21 -43 10 -29 11 -29 17 -7 14 45 25 20 25 -55 0 -61 -5 -89
-24 -129 -29 -62 -80 -122 -108 -126 -19 -3 -21 -9 -21 -59 1 -60 27 -177 43
-193 6 -6 17 -3 28 7 10 9 24 17 30 17 7 0 21 9 32 20 12 12 25 18 30 15 15
-9 12 -35 -4 -35 -8 0 -17 -7 -20 -16 -4 -12 -2 -15 9 -11 8 4 17 2 20 -3 4
-6 17 -10 30 -10 13 0 26 -6 29 -12 4 -7 4 -2 2 11 -5 24 11 71 29 83 5 4 11
12 11 18 1 5 2 14 3 18 0 5 13 7 29 5 20 -3 36 5 62 30 24 23 48 36 73 39 20
2 37 0 37 -4 0 -12 28 -10 53 4 26 14 28 15 86 27 35 7 50 6 67 -6 13 -8 27
-12 33 -9 17 11 40 -5 36 -25 -2 -11 7 -30 22 -45 32 -32 87 -30 120 3 15 15
23 19 26 10 6 -13 11 28 7 53 -1 8 -12 21 -23 30 -29 20 -138 69 -157 70 -18
1 -59 30 -41 30 7 0 9 5 6 10 -4 6 -10 8 -15 5 -11 -7 -32 20 -22 29 4 4 -2
14 -13 23 -19 14 -17 15 21 11 24 -2 46 2 53 9 9 9 22 7 60 -12 27 -14 53 -25
59 -25 26 0 96 -48 105 -72 3 -10 14 -18 23 -18 10 0 25 -7 34 -15 9 -8 31
-16 50 -17 33 -3 35 -1 34 27 -1 63 -13 90 -54 117 -24 17 -40 36 -40 48 0 11
-4 20 -10 20 -5 0 -10 6 -10 14 0 8 -6 16 -12 19 -10 3 -10 7 1 20 11 14 11
17 0 18 -24 2 -64 -3 -74 -9 -9 -6 -24 -7 -175 -16 -41 -3 -86 -6 -100 -8 -19
-2 -25 2 -25 17 0 25 -79 44 -109 25 -16 -10 -18 -10 -13 4 5 12 -1 11 -33 -5
-22 -11 -44 -18 -49 -14 -6 3 -9 -6 -6 -24 2 -22 0 -28 -10 -25 -9 4 -13 22
-13 54 1 49 -17 110 -33 110 -5 0 -2 -16 6 -36 8 -20 14 -51 14 -68 l-1 -31
-8 30 c-6 24 -8 18 -8 -28 1 -47 3 -55 14 -46 17 14 18 5 3 -22 -6 -11 -15
-17 -22 -12 -7 4 -6 -1 2 -11 14 -16 15 -16 24 1 6 10 11 20 13 22 2 2 17 -11
34 -29 46 -49 37 -65 -37 -65 -53 0 -60 2 -58 17 3 11 -2 18 -13 18 -12 0 -13
-3 -5 -11 6 -6 9 -18 6 -25 -6 -16 -33 -19 -33 -3 0 5 4 7 10 4 5 -3 7 0 4 8
-3 8 -1 32 5 53 6 22 11 44 12 49 0 6 6 16 12 24 9 12 9 13 0 7 -10 -5 -13 3
-13 33 0 22 5 43 11 47 9 5 10 -1 5 -20 -4 -15 -2 -26 4 -26 5 0 10 15 10 33
0 50 -12 107 -21 107 -14 0 -158 114 -158 125 -1 6 -11 18 -24 27 -74 58 -82
68 -68 77 10 7 11 13 1 31 -6 12 -10 30 -7 39 2 10 -1 25 -8 35 -13 16 -14 16
-25 -1 -9 -15 -11 -15 -6 -1 5 19 -10 85 -23 92 -4 3 -6 -9 -5 -27 3 -31 3
-31 -8 6 -6 20 -15 37 -19 37 -5 0 -5 -7 -2 -17 4 -11 3 -14 -5 -9 -7 4 -12
16 -12 27 0 11 -4 18 -8 15 -5 -3 -9 0 -10 7 0 7 -3 21 -6 32 -2 11 -5 23 -5
27 -1 4 -11 17 -23 28 -25 23 -29 38 -15 57 6 9 1 14 -17 19 -21 5 -24 9 -15
20 8 10 5 15 -18 19 -45 11 -50 13 -20 14 32 1 37 21 5 22 -16 0 -11 5 17 14
l40 13 -39 1 c-33 1 -37 3 -26 16 18 21 3 19 -21 -4 -11 -10 -30 -18 -43 -18
-19 0 -23 5 -23 31 0 17 7 36 16 43 12 9 7 9 -22 0 -20 -7 -40 -20 -43 -30 -4
-14 -9 -16 -17 -8 -18 18 -57 13 -57 -6 0 -15 -2 -16 -10 -3 -12 18 -10 100 2
100 4 0 8 5 8 11 0 5 -4 8 -9 5 -5 -3 -11 1 -15 9 -10 27 -43 18 -49 -15 -6
-25 -11 -30 -36 -30 -16 0 -33 5 -36 10 -3 6 -12 10 -18 10 -7 0 -6 -4 3 -10
9 -6 10 -10 3 -10 -7 0 -22 10 -33 23 -17 17 -20 18 -14 4 5 -15 0 -13 -32 8
-24 16 -46 24 -59 21 -11 -3 -30 -6 -42 -6 -13 0 -23 -4 -23 -8 0 -5 10 -13
23 -18 12 -6 16 -8 8 -7 -11 3 -9 -3 5 -18 20 -24 10 -20 -38 13 -37 25 -108
24 -142 -3 -14 -11 -23 -25 -20 -31 4 -6 3 -9 -2 -6 -11 7 -36 -17 -27 -26 3
-3 -5 -10 -18 -15 -22 -8 -55 -35 -131 -108 -15 -14 -25 -29 -23 -34 3 -4 1
-9 -3 -11 -5 -1 -26 -25 -47 -53 -20 -27 -41 -52 -45 -55 -11 -8 -152 -261
-161 -290 -5 -16 -8 -19 -8 -7 -1 9 7 36 18 60 42 96 42 98 22 85 -25 -15 -64
-3 -106 33 -27 24 -35 39 -35 64 0 20 6 35 15 39 22 8 18 40 -8 73 -13 15 -26
36 -30 46 -3 9 -11 17 -17 17 -5 0 -10 6 -10 13 0 8 -18 28 -40 46 -40 32 -52
61 -26 61 9 0 13 8 10 23 -2 12 -2 16 2 10 8 -18 25 -16 18 2 -4 11 3 19 25
26 20 7 31 18 31 30 0 17 5 19 35 13 43 -8 45 5 4 35 -18 13 -29 19 -25 13 3
-6 2 -13 -4 -17 -17 -11 -8 73 11 93 21 23 16 32 -40 63 -25 13 -58 36 -74 50
-15 15 -46 32 -68 38 -21 7 -39 17 -39 22 0 7 -10 9 -25 5 -18 -5 -25 -2 -25
9 0 17 -9 18 -68 5 -35 -9 -49 -7 -72 7 -24 14 -34 15 -54 5 -15 -6 -26 -8
-26 -4 0 4 -35 16 -77 25 -43 10 -99 24 -124 32 -26 8 -55 15 -64 15 -14 0
-13 4 8 20 15 12 40 20 64 20 22 0 48 7 59 15 30 23 71 19 90 -10 19 -29 31
-32 37 -7 4 13 5 11 6 -5 1 -29 41 -33 41 -5 0 11 9 27 20 37 14 12 20 29 18
50 -1 17 2 36 6 43 5 9 -61 12 -294 12 -265 0 -301 -2 -296 -15 3 -8 1 -15 -4
-15 -6 0 -10 7 -10 15 0 13 -98 15 -820 15 l-820 0 0 -863z m1738 800 c4 -29
-24 -50 -37 -28 -4 6 -15 9 -24 5 -13 -5 -16 -2 -11 9 3 9 12 13 19 11 10 -4
12 1 8 16 -5 18 -2 21 18 18 18 -2 25 -10 27 -31z m705 -474 c9 -6 5 -63 -5
-63 -4 0 -8 -9 -8 -20 0 -11 7 -20 15 -20 8 0 15 -3 15 -8 0 -11 -62 -6 -104
8 -20 6 -36 18 -36 27 0 16 37 73 54 85 10 7 50 1 69 -9z m241 -22 c-2 -3 -12
3 -22 13 -16 17 -16 18 5 5 12 -7 20 -15 17 -18z m-828 -6 c18 -14 18 -16 2
-29 -10 -7 -18 -18 -18 -25 0 -6 -10 -11 -22 -11 -19 0 -20 -2 -8 -10 21 -13
56 -12 81 3 17 10 23 10 26 0 7 -19 73 -17 73 1 0 8 5 18 12 22 8 5 9 2 5 -10
-5 -13 -2 -17 11 -15 36 3 42 -1 42 -35 0 -19 6 -37 13 -39 6 -3 1 -6 -12 -6
-33 -1 -19 -13 20 -17 18 -2 37 -8 43 -13 6 -4 29 -11 51 -15 22 -4 63 -15 90
-25 28 -10 69 -24 93 -31 23 -7 42 -17 42 -22 0 -4 9 -8 19 -8 11 0 23 -4 26
-10 3 -5 31 -10 61 -10 42 0 59 -5 75 -21 15 -15 18 -24 10 -32 -6 -6 -11 -19
-11 -30 0 -10 -7 -26 -16 -35 -15 -14 -20 -14 -58 6 -22 12 -49 22 -58 22 -9
0 -20 5 -23 10 -4 6 -16 8 -27 4 -23 -7 -146 14 -154 27 -3 5 -20 9 -38 9 -18
0 -55 7 -82 15 -66 20 -173 20 -180 0 -4 -8 -14 -15 -24 -15 -22 0 -39 22 -22
28 9 3 9 9 1 24 -8 15 -18 18 -47 15 -20 -3 -78 -1 -129 5 -72 8 -93 14 -93
26 0 10 -13 2 -37 -21 -41 -42 -46 -43 -67 -22 -8 8 -23 15 -33 15 -37 0 -46
15 -39 64 8 49 29 70 57 55 14 -7 18 -2 24 36 3 25 10 45 16 45 5 0 9 9 9 20
0 11 7 20 16 20 8 0 13 4 9 9 -3 5 -1 12 5 16 5 3 10 1 10 -6 0 -8 4 -8 13 -2
24 19 45 21 73 7 21 -11 35 -12 57 -4 17 5 46 10 66 10 27 0 32 3 21 10 -8 5
-10 10 -4 10 5 0 19 -7 30 -15z m249 -5 c33 0 40 -17 13 -32 -37 -19 -50 -19
-43 3 4 11 2 19 -4 19 -6 0 -11 -5 -11 -11 0 -5 -4 -8 -10 -4 -5 3 -2 14 8 26
9 11 18 15 20 9 2 -5 14 -10 27 -10z m1205 6 c0 -2 -7 -7 -16 -10 -8 -3 -12
-2 -9 4 6 10 25 14 25 6z m-840 -153 c25 6 26 -11 3 -29 -11 -8 -13 -13 -5
-14 6 0 12 -5 12 -11 0 -6 -8 -7 -22 -3 -13 5 -34 9 -48 9 -26 1 -90 35 -90
48 0 4 18 7 40 7 22 0 40 5 40 10 0 6 11 3 25 -6 14 -9 34 -14 45 -11z m-2118
0 c15 -13 21 -14 27 -5 4 7 15 10 24 6 19 -7 21 -13 7 -34 -6 -10 -5 -22 4
-35 22 -36 25 -54 11 -69 -20 -20 -47 -10 -67 25 -9 16 -24 29 -31 29 -27 0
-37 60 -14 85 16 18 17 18 39 -2z m3296 -8 c-3 -3 -9 2 -12 12 -6 14 -5 15 5
6 7 -7 10 -15 7 -18z m-578 -45 c-8 -5 -19 -10 -25 -10 -5 0 -3 5 5 10 8 5 20
10 25 10 6 0 3 -5 -5 -10z m-1232 -182 c3 -32 0 -38 -17 -38 -11 0 -27 -7 -36
-16 -19 -20 -39 -13 -61 22 -18 26 -18 27 10 51 21 18 38 23 65 21 34 -3 36
-5 39 -40z m-1468 12 c0 -15 85 -100 99 -100 16 0 14 -47 -2 -53 -8 -3 -33 3
-56 14 -24 10 -47 16 -52 14 -5 -3 -18 -1 -28 5 -20 10 -19 37 3 52 6 4 6 11
-2 21 -7 7 -8 18 -4 22 4 5 2 5 -5 1 -13 -7 -27 9 -19 22 7 12 66 14 66 2z
m3631 -39 c17 -11 44 -42 60 -70 29 -50 28 -72 -1 -30 -25 36 -82 104 -94 111
-25 17 6 7 35 -11z m-1691 -49 c19 -16 21 -22 11 -40 -15 -29 -32 -28 -62 4
-24 25 -24 26 -5 40 25 18 29 18 56 -4z m1730 -47 c0 -5 -5 -3 -10 5 -5 8 -10
20 -10 25 0 6 5 3 10 -5 5 -8 10 -19 10 -25z m-3807 -7 c10 -5 15 -13 12 -17
-3 -5 1 -11 9 -14 8 -3 19 -21 26 -41 6 -19 20 -38 31 -41 40 -13 20 -30 -33
-29 -29 1 -63 -3 -75 -8 -17 -8 -32 -6 -65 10 -24 12 -37 21 -29 22 11 0 11 3
1 15 -9 11 -9 23 0 52 6 21 13 43 15 49 4 14 83 15 108 2z m3808 -31 c-10 -9
-11 -8 -5 6 3 10 9 15 12 12 3 -3 0 -11 -7 -18z m158 -52 c0 -5 -6 -1 -14 9
-8 11 -15 27 -15 35 1 17 29 -26 29 -44z m-148 -72 c13 -16 12 -17 -3 -4 -10
7 -18 15 -18 17 0 8 8 3 21 -13z m-3695 -2 c7 -1 14 -10 17 -20 3 -14 -2 -21
-17 -25 -36 -10 -51 -7 -64 14 -17 28 -7 41 26 36 15 -2 32 -5 38 -5z m1771
-169 c3 -13 0 -44 -8 -69 -10 -36 -10 -48 -1 -51 7 -2 12 -10 12 -18 0 -8 11
-20 25 -26 13 -6 27 -19 30 -30 8 -23 44 -23 61 0 12 16 17 13 53 -28 22 -25
40 -53 41 -62 0 -10 11 -20 25 -24 19 -5 25 -13 25 -34 0 -16 -4 -31 -9 -35
-6 -3 -13 -27 -17 -53 -4 -26 -11 -58 -16 -72 -11 -31 -66 -80 -89 -80 -9 0
-30 -7 -45 -15 -27 -14 -29 -13 -37 8 -5 12 -10 27 -11 32 -1 6 -8 21 -15 35
-10 17 -11 25 -2 28 6 2 11 8 11 13 0 5 11 27 25 49 14 21 29 56 34 77 5 21
13 49 17 63 l7 25 -29 -25 c-40 -35 -51 -49 -72 -95 -34 -72 -52 -113 -52
-120 0 -22 -89 -88 -134 -99 -16 -4 -43 -18 -59 -32 -33 -28 -40 -29 -57 -9
-7 8 -9 15 -4 15 11 0 10 88 -1 113 -4 10 -3 29 4 43 15 33 15 31 -18 48 -27
15 -28 18 -33 107 -9 152 6 176 127 198 32 6 60 11 61 11 2 0 2 -8 2 -17 -1
-22 19 -73 28 -73 4 0 4 3 1 6 -3 4 3 18 13 32 11 13 20 32 19 41 0 10 -2 12
-6 4 -8 -21 -33 -15 -33 7 0 11 -4 20 -10 20 -11 0 -14 33 -3 44 4 3 8 17 10
29 6 39 12 47 35 47 13 0 29 4 37 9 19 12 50 -8 58 -37z m-1573 -1 c16 -16 25
-34 22 -39 -4 -6 -2 -13 4 -17 6 -4 7 -12 3 -18 -4 -7 -8 -16 -8 -22 -1 -5 -7
-8 -15 -6 -45 13 -80 12 -80 0 0 -8 -6 -3 -13 11 -8 15 -20 24 -30 22 -11 -2
-17 4 -17 18 0 11 5 20 11 20 5 0 8 3 6 8 -3 4 -1 17 4 30 13 35 77 31 113 -7z
m636 -22 c0 -9 -31 -21 -38 -15 -2 3 -1 18 3 33 6 27 7 27 21 9 8 -11 14 -23
14 -27z m1570 20 c0 -6 -4 -7 -10 -4 -5 3 -10 11 -10 16 0 6 5 7 10 4 6 -3 10
-11 10 -16z m485 1 c18 -11 36 -27 39 -35 8 -22 -12 -18 -24 5 -6 11 -23 26
-38 34 -15 9 -23 15 -18 16 5 0 23 -9 41 -20z m-37 -20 c5 -13 3 -13 -11 -1
-11 9 -17 10 -17 2 0 -6 -7 -11 -15 -11 -18 0 -20 16 -2 23 20 9 40 3 45 -13z
m-433 -50 l5 -35 -14 35 c-18 42 -20 58 -6 44 5 -5 12 -25 15 -44z m1680 40
c3 -5 1 -10 -4 -10 -6 0 -11 5 -11 10 0 6 2 10 4 10 3 0 8 -4 11 -10z m-1245
-30 c0 -5 -7 -10 -16 -10 -8 0 -12 5 -9 10 3 6 10 10 16 10 5 0 9 -4 9 -10z
m58 -15 c2 -10 -2 -21 -10 -26 -10 -7 -8 -9 6 -9 17 0 18 -6 13 -48 -3 -26
-11 -60 -18 -76 -29 -64 -176 -93 -249 -50 -32 18 -80 85 -79 109 0 6 7 -3 16
-20 16 -31 62 -85 72 -85 3 0 7 32 8 72 1 46 6 74 15 79 8 6 14 3 16 -7 2 -9
10 -13 22 -9 10 3 21 1 25 -5 3 -5 14 -10 23 -10 12 0 13 3 5 8 -7 5 -10 20
-7 37 9 57 15 62 30 25 19 -44 16 -43 51 -25 33 16 47 40 37 57 -4 6 -1 9 7 6
8 -3 16 -13 17 -23z m1202 10 c11 -13 10 -14 -4 -9 -9 3 -16 10 -16 15 0 13 6
11 20 -6z m650 -90 c0 -8 -4 -15 -10 -15 -5 0 -10 7 -10 15 0 8 5 15 10 15 6
0 10 -7 10 -15z m1960 -51 c0 -8 -4 -12 -10 -9 -5 3 -10 10 -10 16 0 5 5 9 10
9 6 0 10 -7 10 -16z m-2680 -188 c0 -2 -7 -9 -15 -16 -13 -11 -14 -10 -9 4 5
14 24 23 24 12z m-1765 -49 c37 -21 40 -26 41 -67 1 -25 2 -49 4 -55 2 -5 4
-14 5 -20 11 -71 46 -125 68 -107 16 13 101 6 105 -7 2 -6 10 -11 18 -11 18 0
54 -31 48 -41 -6 -10 21 -66 44 -91 9 -12 11 -18 4 -18 -7 0 -12 -9 -12 -20 0
-11 -7 -23 -15 -26 -8 -3 -17 -14 -20 -24 -6 -19 -59 -44 -87 -41 -9 1 -19 -3
-23 -9 -3 -5 -14 -10 -23 -10 -11 0 -25 -18 -39 -47 -28 -62 -80 -112 -113
-108 -36 3 -70 16 -70 26 0 5 -7 6 -15 3 -11 -5 -17 3 -21 25 -4 17 -10 31
-15 31 -5 0 -9 7 -9 15 0 8 -7 15 -15 15 -8 0 -15 -4 -15 -10 0 -13 -46 -24
-62 -14 -13 8 -18 10 -50 12 -10 1 -18 9 -18 17 0 14 -48 45 -71 45 -7 0 -21
-8 -31 -17 -14 -12 -21 -14 -30 -5 -8 8 -15 5 -28 -11 -16 -19 -21 -20 -45 -9
-33 15 -48 7 -42 -24 2 -14 1 -27 -4 -30 -5 -2 -4 -16 1 -30 13 -33 13 -34 -6
-34 -8 0 -22 -16 -29 -35 -15 -35 -48 -61 -65 -50 -5 3 -27 -1 -50 -9 -72 -25
-146 11 -133 64 7 27 26 45 31 30 2 -6 10 -10 17 -10 11 0 13 14 11 60 -3 40
0 60 8 60 6 0 11 18 11 43 1 84 33 137 81 137 13 0 31 8 41 18 10 10 31 23 46
30 23 10 29 9 33 -3 8 -19 33 -20 40 -1 3 7 31 22 62 31 31 10 64 24 73 31 8
8 24 14 33 14 12 0 16 5 13 14 -7 18 24 46 51 46 12 0 22 5 22 11 0 5 4 8 9 5
4 -3 19 3 31 14 12 11 31 22 41 25 18 6 25 39 21 100 -2 41 9 63 40 78 43 22
56 21 103 -6z m1743 -10 c-1 -7 6 -24 16 -40 18 -27 18 -28 0 -49 -11 -12 -14
-19 -8 -15 6 3 11 0 11 -8 0 -7 -7 -13 -16 -12 -13 1 -16 15 -17 73 0 40 4 71
8 68 5 -3 7 -11 6 -17z m-1318 -82 c0 -8 -2 -15 -4 -15 -2 0 -11 -3 -20 -6
-10 -4 -16 -1 -16 9 0 14 13 24 33 26 4 1 7 -6 7 -14z m-2340 -45 c0 -5 -5
-12 -11 -16 -6 -3 -8 -17 -5 -30 4 -16 1 -26 -11 -33 -14 -7 -15 -12 -4 -25 7
-8 10 -20 6 -26 -4 -6 3 -22 14 -34 32 -34 19 -56 -33 -56 -40 -1 -41 -1 -16
-15 14 -7 23 -17 21 -22 -3 -7 26 -28 77 -55 13 -7 32 -29 43 -50 35 -68 18
-128 -36 -128 -24 0 -50 -19 -57 -42 -4 -10 -8 -10 -21 1 -9 7 -23 11 -32 8
-16 -7 -45 17 -45 38 0 7 -13 18 -29 23 -24 8 -28 15 -25 39 2 23 -3 32 -26
45 -38 22 -38 37 -1 51 31 11 48 46 30 58 -7 4 -5 9 5 12 9 4 16 16 16 27 0
11 7 20 15 20 32 0 10 36 -27 45 -33 8 -45 35 -20 42 10 2 25 20 34 38 14 32
14 35 -3 40 -23 8 -24 18 -3 36 12 10 20 10 34 1 20 -12 46 -7 68 15 13 12 42
8 42 -7z m2394 -2 c8 -32 7 -78 -1 -78 -13 0 -39 20 -28 20 6 1 -1 6 -15 12
l-25 11 33 9 c37 10 39 14 12 21 -11 3 -18 1 -14 -4 3 -5 -2 -9 -10 -9 -25 0
-19 28 7 33 12 2 25 5 28 6 4 0 9 -9 13 -21z m-2580 -39 c-3 -5 -10 -7 -15 -3
-5 3 -7 10 -3 15 3 5 10 7 15 3 5 -3 7 -10 3 -15z m6228 -71 c15 -6 26 -13 24
-17 -2 -3 2 -12 10 -19 12 -11 15 -10 20 2 9 25 33 19 40 -9 5 -21 11 -24 28
-19 16 5 12 -1 -14 -25 -24 -21 -45 -31 -68 -31 -20 0 -35 -6 -38 -15 -4 -8
-15 -15 -26 -15 -10 0 -37 -9 -58 -19 -35 -17 -41 -17 -52 -4 -15 19 -14 121
1 136 6 6 11 19 11 28 0 29 58 32 122 7z m349 -54 c27 -16 -11 -55 -54 -54
-25 1 -60 37 -53 55 5 15 14 17 52 11 25 -3 50 -8 55 -12z m-174 -10 c-3 -3
-12 -4 -19 -1 -8 3 -5 6 6 6 11 1 17 -2 13 -5z m-1221 -193 c-11 -18 -36 -13
-36 7 0 10 3 22 7 26 10 10 37 -20 29 -33z m-4183 -31 c4 -19 12 -49 18 -66
14 -46 11 -92 -6 -102 -13 -7 -14 -16 -6 -53 13 -56 14 -82 1 -74 -5 3 -10 21
-10 39 0 26 -4 33 -17 32 -12 -1 -19 7 -21 24 -2 14 -8 30 -14 37 -5 7 -7 16
-4 22 3 5 1 11 -6 13 -8 3 -12 24 -10 62 4 96 56 143 75 66z m4547 21 c0 -6
-4 -13 -10 -16 -5 -3 -10 1 -10 9 0 9 5 16 10 16 6 0 10 -4 10 -9z m-4 -63
c-3 -18 -8 -56 -11 -85 -2 -28 -11 -69 -18 -90 -7 -21 -14 -57 -15 -81 -2 -24
-8 -65 -13 -90 -6 -26 -12 -69 -14 -97 -1 -27 -12 -86 -24 -129 -11 -44 -21
-106 -21 -138 0 -58 -20 -126 -42 -139 -15 -9 -14 -84 1 -138 8 -27 10 -65 6
-96 -4 -34 -1 -62 8 -85 18 -44 15 -99 -8 -134 -16 -25 -35 -35 -35 -18 0 4
-14 22 -30 41 -17 18 -30 36 -31 40 -1 3 -2 34 -4 68 -2 34 -9 71 -17 82 -14
20 -15 20 -36 -9 -12 -16 -22 -33 -22 -38 0 -5 -9 -17 -20 -27 -11 -10 -20
-22 -20 -27 0 -15 -54 -57 -72 -58 -10 0 -19 -8 -19 -17 -1 -10 -2 -22 -4 -28
-1 -5 -3 -14 -4 -20 -1 -5 -6 -1 -11 10 -7 17 -9 14 -9 -13 -1 -18 -5 -31 -10
-28 -4 3 -17 -4 -27 -15 -12 -14 -15 -22 -7 -27 6 -4 14 -24 18 -45 5 -26 20
-51 45 -75 51 -49 70 -64 70 -55 0 18 26 -34 28 -54 1 -31 -39 -35 -68 -7 -8
8 -33 28 -55 44 -22 16 -45 34 -52 40 -6 5 -15 34 -18 64 -6 44 -3 68 16 120
14 40 26 60 31 53 5 -8 8 -4 8 11 0 12 7 25 15 28 8 4 15 16 15 28 0 22 21 73
65 156 20 37 31 47 69 59 61 19 76 52 82 179 3 53 8 106 11 117 12 35 14 48
19 130 3 44 9 91 14 105 5 14 16 70 25 125 12 71 26 117 49 160 17 33 38 76
46 95 7 19 22 46 32 59 10 13 18 31 18 40 0 20 19 41 37 41 10 0 12 -9 9 -32z
m-5725 -26 c22 -23 24 -32 16 -65 -8 -32 -13 -37 -37 -37 -24 0 -30 6 -40 35
-15 45 -5 95 19 95 10 0 29 -12 42 -28z m2732 -32 c18 -35 11 -55 -27 -75 -41
-22 -111 -16 -131 12 -17 22 -19 53 -4 53 6 0 9 6 6 13 -2 6 2 19 9 28 12 13
23 14 74 5 48 -9 63 -16 73 -36z m-893 -4 c0 -2 -7 -9 -15 -16 -12 -10 -15
-10 -15 4 0 9 7 16 15 16 8 0 15 -2 15 -4z m1299 -36 c0 -10 -3 -8 -9 5 -12
27 -12 43 0 25 5 -8 9 -22 9 -30z m-322 24 c-3 -3 -12 -4 -19 -1 -8 3 -5 6 6
6 11 1 17 -2 13 -5z m-1967 -14 c0 -5 -4 -10 -10 -10 -5 0 -10 5 -10 10 0 6 5
10 10 10 6 0 10 -4 10 -10z m1960 -20 c0 -5 -7 -7 -15 -4 -8 4 -15 8 -15 10 0
2 7 4 15 4 8 0 15 -4 15 -10z m-2543 -16 c8 -21 -13 -42 -28 -27 -13 13 -5 43
11 43 6 0 13 -7 17 -16z m2890 -16 c-3 -8 -6 -5 -6 6 -1 11 2 17 5 13 3 -3 4
-12 1 -19z m-2307 2 c0 -5 -2 -10 -4 -10 -3 0 -8 5 -11 10 -3 6 -1 10 4 10 6
0 11 -4 11 -10z m3946 -74 c-12 -44 -32 -58 -70 -51 -22 5 -36 13 -36 22 0 10
-7 14 -20 10 -11 -3 -18 -1 -14 4 3 5 0 9 -6 9 -6 0 -9 4 -5 9 3 5 0 13 -6 17
-9 5 -10 0 -7 -14 4 -12 3 -22 -1 -22 -4 0 -7 -9 -7 -19 0 -16 4 -18 18 -10
24 13 37 4 31 -22 -5 -17 -2 -20 18 -17 15 2 23 -2 22 -9 -2 -7 5 -13 15 -14
10 0 12 -3 4 -6 -6 -2 -10 -9 -6 -14 8 -13 -10 -11 -24 3 -9 9 -9 15 1 27 10
14 10 14 -5 3 -14 -11 -29 -5 -107 44 -84 52 -122 81 -88 68 8 -3 19 2 26 10
10 12 18 13 33 5 15 -8 23 -8 32 1 8 8 7 10 -5 5 -10 -4 -19 -2 -23 3 -6 11
-4 11 108 15 66 3 91 7 95 18 7 22 33 -51 27 -75z m-4506 58 c0 -8 -5 -12 -10
-9 -6 4 -8 11 -5 16 9 14 15 11 15 -7z m2240 -94 c0 -13 -5 -18 -15 -14 -16 7
-19 17 -8 27 12 13 23 7 23 -13z m-2304 -57 c3 -12 3 -27 -1 -33 -3 -5 -8 -21
-11 -34 -2 -13 -11 -37 -19 -52 -17 -33 -20 -120 -5 -129 14 -8 13 -41 -2 -64
-9 -14 -9 -26 -1 -43 14 -31 6 -53 -13 -37 -11 9 -14 7 -14 -14 0 -30 -15 -44
-24 -22 -3 8 -12 12 -21 9 -10 -4 -15 0 -15 10 0 9 8 16 18 17 9 0 2 5 -17 11
-47 13 -81 37 -81 57 0 10 -7 26 -15 37 -8 10 -15 25 -15 32 0 17 39 54 50 47
6 -4 11 6 12 22 2 42 3 47 12 62 5 8 4 16 -4 21 -8 5 -10 17 -6 36 9 33 52 88
60 75 6 -9 56 -3 56 8 0 3 11 6 25 6 18 0 28 -7 31 -22z m136 -62 c10 -9 18
-25 17 -36 0 -18 -1 -18 -8 -2 -6 18 -7 18 -22 0 -26 -30 -32 -45 -18 -42 34
4 40 -1 29 -21 -6 -11 -15 -20 -19 -20 -12 0 -49 72 -44 87 2 6 -1 14 -8 19
-8 5 -5 12 12 25 24 18 30 17 61 -10z m4591 -34 c-3 -5 -10 -4 -15 1 -6 6 -7
16 -3 22 6 9 9 9 16 -1 4 -7 5 -17 2 -22z m-5063 8 c19 -23 21 -66 4 -82 -12
-12 -23 -13 -64 -3 -32 8 -50 17 -50 27 0 53 79 95 110 58z m520 -10 c0 -8 -4
-15 -10 -15 -5 0 -10 7 -10 15 0 8 5 15 10 15 6 0 10 -7 10 -15z m4599 -118
c9 -11 8 -53 -1 -63 -6 -5 -78 21 -78 29 0 4 12 5 27 3 20 -4 23 -2 15 6 -7 7
-12 18 -12 25 0 17 34 17 49 0z m-3644 -21 c26 -4 42 -26 37 -51 -2 -14 -8
-28 -13 -31 -5 -3 -9 -13 -9 -22 0 -9 -13 -33 -29 -52 -25 -29 -31 -32 -45
-21 -9 7 -13 17 -10 22 3 5 -1 9 -9 9 -13 0 -27 46 -27 93 0 27 49 69 73 61
11 -3 25 -7 32 -8z m-1408 -26 c7 -10 10 -27 6 -36 -4 -12 -3 -15 5 -10 7 4
12 5 12 2 0 -2 3 -11 6 -19 4 -11 -1 -15 -20 -13 -20 1 -24 6 -24 29 1 15 -4
33 -10 39 -16 16 -15 28 1 28 7 0 18 -9 24 -20z m5020 -62 c-3 -8 -6 -5 -6 6
-1 11 2 17 5 13 3 -3 4 -12 1 -19z m-3967 -23 c16 -8 31 -24 35 -35 3 -11 15
-25 26 -30 10 -6 19 -20 19 -30 0 -15 7 -20 28 -19 15 0 22 3 16 5 -13 6 -7
44 7 44 17 0 -5 -200 -22 -211 -6 -3 -14 -22 -18 -40 -4 -19 -13 -33 -19 -31
-7 1 -12 -5 -12 -14 0 -13 -5 -12 -29 5 -36 26 -46 15 -50 -49 -3 -56 -17 -76
-39 -58 -12 10 -16 10 -19 1 -3 -7 -12 -13 -20 -13 -9 0 -13 6 -9 15 4 10 -1
15 -14 15 -12 0 -20 -7 -20 -16 0 -9 -6 -14 -12 -12 -8 3 -14 26 -15 62 -1 46
2 56 13 52 8 -3 14 1 14 9 0 17 16 20 25 5 12 -19 30 -10 46 23 12 24 22 31
40 29 13 -1 26 -7 30 -14 4 -6 9 -2 14 11 3 11 11 21 16 21 5 0 9 18 9 40 0
24 5 40 12 40 21 0 -6 18 -37 24 -26 6 -34 2 -53 -24 -13 -16 -32 -30 -43 -30
-14 0 -19 -5 -17 -17 2 -10 10 -17 17 -15 7 1 11 -2 9 -8 -2 -7 -6 -10 -10 -8
-3 2 -15 -6 -27 -16 -21 -19 -22 -19 -36 0 -8 10 -15 27 -15 36 0 26 -11 48
-21 42 -5 -3 -9 0 -9 5 0 6 4 11 9 11 5 0 13 10 17 23 10 33 57 97 72 97 6 0
12 9 12 20 0 12 7 20 16 20 11 0 14 5 10 17 -4 9 -1 20 6 25 17 10 14 10 48
-7z m3996 -30 c-3 -10 1 -18 12 -22 9 -4 23 -13 30 -20 7 -7 20 -13 27 -13 7
0 33 -15 58 -34 38 -29 76 -47 135 -62 7 -2 11 -8 7 -13 -3 -5 -1 -12 4 -16
13 -7 -2 -48 -30 -83 -15 -20 -97 -57 -135 -62 -1 0 -14 35 -29 78 -15 42 -42
107 -61 143 -18 37 -30 69 -27 73 4 3 1 6 -5 6 -9 0 -9 5 0 20 15 24 23 26 14
5z m-4306 -45 c0 -5 -8 -10 -17 -10 -15 0 -16 2 -3 10 19 12 20 12 20 0z m-5
-62 c8 7 -3 -49 -11 -58 -3 -2 -9 2 -15 10 -8 13 -10 13 -19 0 -14 -21 -13 3
2 34 8 18 15 23 23 16 7 -5 15 -6 20 -2z m5595 -108 c0 -5 -2 -10 -4 -10 -3 0
-8 5 -11 10 -3 6 -1 10 4 10 6 0 11 -4 11 -10z m36 -41 c4 -6 10 -26 14 -45 6
-25 4 -34 -7 -38 -24 -10 -33 -7 -33 9 0 8 -4 15 -8 15 -4 0 -6 16 -4 35 4 34
24 47 38 24z m29 -119 c-3 -5 -13 -10 -21 -10 -8 0 -14 5 -14 10 0 6 9 10 21
10 11 0 17 -4 14 -10z m-1205 -10 c0 -5 -4 -10 -10 -10 -5 0 -10 5 -10 10 0 6
5 10 10 10 6 0 10 -4 10 -10z m-3565 -10 c3 -5 -1 -10 -10 -10 -9 0 -13 5 -10
10 3 6 8 10 10 10 2 0 7 -4 10 -10z m-515 -101 c12 -23 18 -48 15 -57 -4 -10
-9 -30 -10 -46 -4 -39 -26 -58 -75 -63 -35 -4 -45 0 -58 19 -19 27 -16 73 7
108 9 14 22 37 29 53 9 21 18 27 42 27 25 0 33 -7 50 -41z m2235 -29 c-3 -5
-11 -10 -16 -10 -6 0 -7 5 -4 10 3 6 11 10 16 10 6 0 7 -4 4 -10z m-2 -105
c-3 -9 -8 -14 -10 -11 -3 3 -2 9 2 15 9 16 15 13 8 -4z m7 -70 c0 -5 -5 -3
-10 5 -5 8 -10 20 -10 25 0 6 5 3 10 -5 5 -8 10 -19 10 -25z m-134 -142 c-6
-16 -5 -16 29 -3 23 9 25 8 16 -9 -7 -12 -6 -22 1 -29 9 -9 9 -12 0 -12 -7 0
-15 7 -18 15 -4 8 -10 13 -14 10 -10 -6 -26 13 -35 45 -7 22 -6 24 9 11 9 -8
15 -20 12 -28z m389 -105 c27 -46 94 -157 148 -248 55 -91 105 -174 111 -185
6 -11 19 -31 27 -45 107 -165 185 -291 224 -360 26 -47 52 -88 58 -91 5 -4 1
-12 -11 -18 -29 -15 -40 -14 -17 3 18 13 18 14 -2 20 -15 5 -27 24 -39 59 -9
29 -20 54 -23 57 -3 3 -45 64 -92 135 -77 117 -130 200 -253 398 -69 111 -195
357 -182 357 2 0 25 -37 51 -82z m-314 3 c-11 -7 -12 -13 -3 -24 9 -11 9 -14
-3 -14 -8 0 -11 5 -8 10 4 6 0 8 -10 4 -10 -3 -17 -5 -17 -2 0 9 32 35 43 35
7 0 6 -4 -2 -9z m6 -59 c7 -4 14 -23 17 -42 l6 -35 -23 28 c-32 39 -32 69 0
49z m58 -130 c-6 -7 -34 29 -34 43 0 6 9 -1 20 -14 11 -13 17 -26 14 -29z m33
-45 c21 -22 21 -23 2 -24 -11 -1 -20 4 -20 13 0 8 -4 14 -10 14 -5 0 -10 5
-10 10 0 17 15 11 38 -13z m22 -52 c7 -9 8 -15 2 -15 -5 0 -12 7 -16 15 -3 8
-4 15 -2 15 2 0 9 -7 16 -15z m2170 -4 c0 -14 -5 -18 -20 -14 -11 3 -20 12
-20 19 0 8 9 14 20 14 13 0 20 -7 20 -19z m-2127 -43 c-21 -13 -29 -14 -35 -5
-13 20 -9 23 27 23 l34 0 -26 -18z m14 -60 c2 -12 1 -19 -2 -16 -3 3 -8 16
-10 28 -2 12 -1 20 2 16 4 -4 8 -16 10 -28z m2353 -216 c14 -5 29 -7 34 -5 17
11 25 -22 10 -44 -11 -18 -12 -27 -2 -42 20 -32 -1 -83 -42 -103 -29 -14 -42
-15 -77 -7 -23 6 -51 21 -63 34 -20 21 -21 27 -10 83 11 52 16 62 48 80 37 21
59 22 102 4z m-1634 -392 c6 -22 7 -37 3 -34 -5 3 -9 12 -9 20 0 8 -4 14 -8
14 -4 0 -8 9 -8 20 0 33 11 23 22 -20z m-166 -40 c-27 -21 -40 -25 -40 -12 0
8 38 29 55 31 6 0 -1 -8 -15 -19z m235 -30 c16 -16 24 -30 19 -30 -6 0 -23 14
-39 30 -16 17 -24 30 -19 30 6 0 23 -13 39 -30z m-217 -35 c-5 -5 -15 -2 -26
9 -16 16 -16 18 3 32 18 14 20 13 26 -8 3 -13 2 -27 -3 -33z m-37 -62 c13 -16
12 -17 -3 -4 -17 13 -22 21 -14 21 2 0 10 -8 17 -17z m209 -38 c0 -8 -4 -15
-9 -15 -5 0 -14 7 -21 15 -10 13 -9 15 9 15 12 0 21 -6 21 -15z m-110 -38 c17
-4 15 -5 -9 -4 -24 2 -38 9 -49 27 l-16 25 24 -22 c14 -12 36 -23 50 -26z m55
3 c-3 -5 -12 -10 -18 -10 -7 0 -6 4 3 10 19 12 23 12 15 0z m135 -82 c59 -90
73 -124 48 -116 -23 8 -140 177 -134 193 11 29 27 14 86 -77z m155 -98 c3 -6
-4 -10 -17 -10 -13 0 -34 -3 -48 -6 -17 -5 -22 -3 -15 4 9 9 35 18 62 21 6 0
15 -3 18 -9z m-136 -66 c-38 -40 -40 -69 -10 -138 16 -36 24 -46 34 -38 6 5
29 17 50 25 50 21 52 -2 2 -26 -59 -28 -69 -23 -99 43 -31 68 -29 101 8 141
12 13 20 31 18 39 -5 13 -3 13 12 1 16 -13 14 -17 -15 -47z m-1899 15 c0 -6 7
-9 14 -6 9 4 18 -2 22 -15 6 -21 7 -21 20 -3 18 24 18 15 1 -19 -8 -14 -17
-23 -20 -19 -4 3 -7 -2 -8 -13 0 -10 -3 -13 -6 -6 -3 7 -24 12 -56 12 -47 0
-49 1 -31 15 15 11 16 15 4 16 -8 0 -24 2 -35 3 -11 1 -30 3 -42 4 -14 1 -23
9 -23 18 0 13 6 15 27 9 15 -3 31 -12 35 -18 6 -9 10 -9 16 1 5 7 22 17 38 22
40 12 44 12 44 -1z m-443 -29 c-4 -15 1 -22 19 -26 20 -5 22 -8 9 -21 -18 -18
-100 -14 -100 5 0 21 38 61 59 62 14 0 17 -5 13 -20z m4840 -35 c23 -7 53 -92
53 -149 0 -47 -4 -58 -29 -84 -23 -23 -42 -31 -88 -36 -37 -4 -59 -3 -61 4 -2
5 -10 10 -18 10 -17 0 -18 17 -3 76 9 34 9 48 0 57 -8 8 -11 7 -11 -6 0 -9 -7
-17 -15 -17 -12 0 -14 7 -9 28 26 107 86 145 181 117z m-4547 -23 c8 -10 16
-23 16 -28 1 -5 5 -23 8 -41 9 -38 0 -44 -69 -50 -48 -4 -55 -2 -79 23 -24 26
-23 46 2 50 41 7 72 19 71 28 -5 40 25 50 51 18z m-182 -20 c2 -6 -5 -15 -15
-18 -10 -3 -26 -10 -35 -15 -24 -12 -36 -11 -52 4 -12 10 -12 15 2 30 18 20
93 20 100 -1z m369 -14 c-3 -8 -6 -5 -6 6 -1 11 2 17 5 13 3 -3 4 -12 1 -19z
m4141 -59 c1 -8 -9 -19 -22 -25 -34 -16 -47 -1 -34 38 10 27 12 28 32 15 11
-8 22 -21 24 -28z m-772 -14 c20 -31 13 -41 -31 -49 -31 -6 -35 -10 -29 -28 4
-14 2 -18 -5 -14 -6 4 -11 13 -11 21 0 7 -7 15 -15 19 -12 4 -13 11 -4 33 19
50 68 59 95 18z m-3473 -42 c22 8 45 -12 40 -33 -7 -28 -20 -25 -53 10 -15 17
-24 30 -19 30 5 0 10 8 10 18 1 11 3 9 6 -6 3 -13 10 -21 16 -19z m4580 13
c22 -17 22 -23 -4 -36 -17 -9 -23 -8 -34 6 -25 35 2 57 38 30z m67 -20 c0 -3
-4 -8 -10 -11 -5 -3 -10 -1 -10 4 0 6 5 11 10 11 6 0 10 -2 10 -4z m-2593 -58
c-3 -8 -6 -5 -6 6 -1 11 2 17 5 13 3 -3 4 -12 1 -19z m2111 -12 c2 -10 -6 -27
-17 -37 -13 -12 -21 -32 -21 -53 0 -30 -3 -33 -50 -46 -32 -9 -46 -17 -38 -22
10 -5 10 -12 2 -25 -11 -18 -61 -36 -76 -27 -16 10 -7 35 17 46 l25 11 -26 24
c-22 21 -23 23 -6 23 11 0 25 7 32 15 7 8 19 15 26 15 8 0 14 9 14 20 0 11 4
20 9 20 5 0 11 9 14 20 3 12 14 20 25 20 12 0 24 5 27 11 10 16 39 6 43 -15z
m-305 -52 c12 -12 -19 -44 -43 -44 -24 0 -55 32 -43 44 4 3 23 6 43 6 20 0 39
-3 43 -6z m-433 -14 c0 -5 -7 -10 -16 -10 -8 0 -12 5 -9 10 3 6 10 10 16 10 5
0 9 -4 9 -10z m-160 -10 c0 -5 -4 -10 -9 -10 -6 0 -13 5 -16 10 -3 6 1 10 9
10 9 0 16 -4 16 -10z m75 0 c4 -6 -5 -10 -19 -10 -14 0 -26 5 -26 10 0 6 9 10
19 10 11 0 23 -4 26 -10z m-453 -524 c16 -16 31 -40 34 -53 4 -13 10 -23 15
-23 12 0 11 7 -2 31 -10 20 -10 20 30 0 22 -12 65 -23 96 -25 62 -4 76 -16
120 -103 32 -61 43 -154 26 -206 -11 -33 -15 -35 -36 -27 -16 6 -27 6 -31 -1
-4 -7 -10 -6 -19 1 -10 8 -14 7 -18 -2 -3 -8 -6 -6 -6 5 -1 15 -6 17 -31 12
-22 -5 -30 -3 -30 7 0 9 -15 13 -52 12 -29 -1 -58 3 -65 8 -7 6 -15 3 -22 -9
-6 -10 -11 -14 -11 -10 0 4 6 18 14 30 12 18 12 24 1 34 -18 16 -40 -9 -31
-34 5 -11 4 -14 -2 -8 -5 6 -12 27 -15 48 -6 36 -4 38 16 31 18 -5 17 -2 -8
17 -16 13 -34 24 -40 24 -5 0 -11 9 -14 20 -2 11 -8 23 -15 27 -8 6 -7 8 2 8
7 0 10 5 7 10 -4 6 -10 8 -15 5 -12 -8 -30 57 -19 69 13 15 11 26 -6 26 -8 0
-15 9 -15 20 0 11 6 20 14 20 8 0 18 5 22 12 5 7 3 8 -6 3 -10 -6 -11 -2 -6
19 4 18 3 25 -4 21 -16 -10 -12 21 5 35 8 7 15 19 15 26 0 14 42 -19 102 -80z
m283 -46 c3 -5 2 -10 -4 -10 -5 0 -13 5 -16 10 -3 6 -2 10 4 10 5 0 13 -4 16
-10z m255 -175 c7 -8 8 -15 2 -15 -5 0 -15 7 -22 15 -7 8 -8 15 -2 15 5 0 15
-7 22 -15z m-2293 -73 c12 -8 27 -93 28 -162 0 -25 5 -48 10 -52 6 -5 5 -8 -2
-8 -14 0 -7 -97 8 -116 6 -8 4 -14 -7 -18 -30 -12 -33 -6 -32 64 1 52 -3 74
-15 88 -9 10 -17 25 -18 33 0 8 -4 6 -8 -6 -5 -11 -7 -27 -6 -36 3 -14 -4 -12
-41 8 -45 25 -53 37 -33 49 8 4 8 9 0 17 -15 15 -14 37 2 37 7 0 29 -11 50
-25 37 -25 37 -25 37 -4 0 15 5 19 15 15 8 -3 15 -3 15 1 0 10 -73 79 -90 85
-24 8 -8 17 22 11 15 -3 29 -10 31 -17 2 -6 3 -2 1 10 -5 30 9 42 33 26z
m-234 -68 c41 -6 52 -33 15 -35 -22 -2 -22 -2 -2 -6 15 -3 22 -12 22 -27 0
-26 9 -27 -108 9 -30 10 -61 19 -67 21 -23 6 -14 21 10 17 12 -2 30 2 41 10
22 16 37 18 89 11z m-1114 -141 c-6 -74 -33 -153 -51 -153 -7 0 -4 30 7 67 2
7 -2 25 -10 40 -22 42 -19 89 7 107 47 33 54 23 47 -61z"/>
<path d="M1760 6725 c0 -12 -39 -42 -47 -37 -2 1 -3 0 -3 -3 0 -3 0 -9 0 -15
0 -5 9 -10 19 -10 11 0 23 -9 26 -20 7 -21 30 -27 40 -11 3 5 -4 12 -15 16
-30 9 -25 41 8 51 15 4 31 6 35 5 21 -4 -6 18 -33 27 -24 9 -30 8 -30 -3z"/>
<path d="M1920 6450 c0 -5 5 -10 11 -10 5 0 7 5 4 10 -3 6 -8 10 -11 10 -2 0
-4 -4 -4 -10z"/>
<path d="M4875 4691 c-3 -6 5 -15 17 -21 21 -10 22 -10 5 4 -18 14 -18 14 0
19 15 4 16 5 1 6 -9 0 -19 -3 -23 -8z"/>
<path d="M4924 4669 c0 -11 5 -18 10 -16 16 5 18 24 4 30 -9 3 -14 -3 -14 -14z"/>
<path d="M4995 4619 c-11 -17 1 -21 15 -4 8 9 8 15 2 15 -6 0 -14 -5 -17 -11z"/>
<path d="M2721 1744 c0 -11 3 -14 6 -6 3 7 2 16 -1 19 -3 4 -6 -2 -5 -13z"/>
<path d="M5606 760 c18 -69 62 -140 85 -140 4 0 -5 13 -21 28 -16 16 -33 46
-39 68 -6 21 -16 46 -22 54 -8 12 -9 9 -3 -10z"/>
<path d="M5583 535 c0 -8 4 -12 9 -9 5 3 6 10 3 15 -9 13 -12 11 -12 -6z"/>
<path d="M3802 430 c0 -19 2 -27 5 -17 2 9 2 25 0 35 -3 9 -5 1 -5 -18z"/>
<path d="M3480 480 c-8 -5 -10 -10 -5 -10 6 0 17 5 25 10 8 5 11 10 5 10 -5 0
-17 -5 -25 -10z"/>
<path d="M2335 7255 c0 -38 5 -69 13 -76 6 -7 12 -18 12 -25 0 -8 14 -10 44
-7 23 3 52 0 64 -6 16 -9 24 -8 36 4 8 8 19 15 25 15 6 0 11 5 11 11 0 5 4 8
8 5 4 -2 14 9 21 26 12 25 11 32 0 39 -16 10 -15 10 29 14 26 2 35 -2 42 -19
8 -18 9 -19 9 -2 1 15 6 17 31 13 36 -8 95 23 103 53 5 19 0 20 -95 20 -80 0
-99 -3 -95 -13 3 -8 2 -19 -2 -26 -10 -16 -61 3 -61 24 0 12 -17 15 -97 15
l-98 0 0 -65z m225 -45 c0 -5 -4 -10 -10 -10 -5 0 -10 5 -10 10 0 6 5 10 10
10 6 0 10 -4 10 -10z"/>
<path d="M2836 7305 c4 -8 15 -15 25 -15 10 0 38 -20 63 -44 32 -33 46 -41 50
-30 3 8 15 14 26 14 11 0 20 7 20 15 0 8 -7 15 -15 15 -19 0 -19 5 1 35 l16
25 -96 0 c-81 0 -94 -2 -90 -15z"/>
<path d="M3060 7303 c0 -9 -3 -14 -6 -10 -4 3 -13 0 -20 -8 -13 -12 -12 -17 3
-35 10 -11 23 -20 30 -20 17 0 63 -51 63 -70 0 -9 4 -20 10 -26 14 -14 19 -57
8 -71 -7 -9 -6 -18 2 -28 7 -8 14 -35 16 -60 2 -25 9 -52 16 -60 7 -8 19 -21
26 -30 7 -8 26 -15 42 -15 26 0 29 3 22 23 -5 12 -7 36 -5 52 4 39 10 105 12
128 0 9 7 17 15 17 8 0 16 7 20 15 3 8 12 15 21 15 21 0 46 28 72 80 13 27 19
48 13 55 -12 14 0 31 35 49 28 15 16 16 -182 16 -192 0 -213 -2 -213 -17z"/>
<path d="M3747 7283 c-10 -60 -4 -61 168 -32 39 6 91 12 118 12 26 1 47 5 47
9 0 4 17 8 38 8 26 0 41 6 50 20 11 19 10 20 -32 20 -24 0 -65 -9 -91 -20 -58
-25 -75 -25 -149 0 -33 11 -78 20 -101 20 -41 0 -43 -1 -48 -37z"/>
<path d="M4589 7306 c7 -8 26 -14 42 -14 54 2 71 -38 54 -127 -5 -22 -8 -50
-9 -62 0 -13 -7 -25 -17 -28 -18 -6 -99 -82 -99 -94 0 -4 -15 -15 -34 -24 -33
-15 -39 -15 -107 4 -40 11 -84 17 -99 14 -14 -3 -38 -1 -53 4 -18 7 -27 7 -31
-2 -3 -7 -3 0 0 16 6 28 -11 38 -32 17 -5 -5 -32 -13 -59 -16 -28 -4 -54 -13
-58 -21 -10 -16 -40 -17 -84 -1 -40 14 -43 28 -6 28 14 0 34 7 44 16 9 8 44
19 77 24 32 4 73 15 90 24 28 14 32 14 55 -4 14 -11 28 -16 31 -12 3 5 32 7
65 5 51 -3 63 -1 81 17 12 12 19 28 16 35 -2 7 1 18 8 24 7 6 13 24 14 41 1
28 -1 30 -39 30 -21 0 -39 5 -39 10 0 15 -47 12 -73 -4 -39 -25 -238 -68 -327
-71 -47 -1 -85 -3 -85 -4 0 -2 -13 -5 -30 -7 -153 -21 -205 -37 -205 -61 0 -7
-7 -13 -16 -13 -9 0 -14 -6 -11 -12 2 -7 10 -12 16 -11 6 2 12 -5 12 -15 1
-18 4 -33 8 -42 2 -3 4 -14 6 -25 2 -11 9 -21 14 -23 6 -2 11 -11 11 -20 1
-15 2 -15 14 1 7 9 16 17 20 17 3 0 6 -8 7 -17 0 -15 2 -15 9 2 12 31 64 28
68 -3 3 -18 7 -21 17 -12 10 8 13 7 11 -7 -1 -12 10 -21 32 -28 18 -6 40 -20
50 -30 17 -19 16 -19 -4 -2 -23 19 -61 22 -84 7 -13 -8 -12 -10 3 -10 10 0 36
-9 58 -20 22 -12 57 -23 79 -26 34 -5 39 -3 34 10 -8 20 0 20 20 0 9 -8 16
-11 16 -5 0 6 8 11 17 11 13 0 14 -3 5 -12 -11 -11 -17 -78 -7 -78 2 0 23 7
45 16 55 22 61 12 8 -14 l-43 -21 33 -1 c19 0 35 -6 38 -15 4 -8 12 -15 20
-15 8 0 14 7 14 15 0 8 4 15 9 15 17 0 5 -33 -15 -42 -13 -6 -8 -7 16 -3 25 3
31 2 20 -5 -12 -7 -12 -12 -2 -22 18 -18 14 -46 -9 -58 -20 -11 -20 -12 -2
-27 10 -8 11 -11 4 -7 -9 5 -6 -5 7 -23 25 -36 29 -51 7 -33 -8 6 -20 8 -26 4
-16 -9 14 -22 53 -23 14 -1 28 -6 30 -11 2 -6 38 -13 81 -16 l78 -7 42 41 c62
61 149 86 191 56 11 -8 28 -14 38 -14 10 0 17 -5 15 -11 -1 -6 13 -19 30 -28
18 -9 33 -22 33 -28 0 -7 8 -14 18 -14 47 -3 76 -9 82 -16 5 -4 11 -31 15 -60
6 -48 5 -52 -17 -58 -13 -4 -31 -14 -41 -23 -13 -12 -20 -13 -29 -4 -18 18
-28 15 -28 -8 0 -10 -7 -23 -16 -28 -26 -15 11 -25 81 -23 49 2 64 -1 82 -18
26 -25 39 -26 47 -6 4 12 18 14 77 9 69 -7 71 -6 95 21 13 15 26 36 29 46 3
10 16 21 28 25 12 4 25 11 28 16 7 11 -10 105 -27 143 -7 17 -21 50 -32 75
-11 25 -32 86 -47 135 -15 50 -31 100 -36 113 -5 13 -9 34 -9 47 0 13 -4 27
-10 30 -5 3 -10 26 -10 50 0 24 -4 47 -10 50 -5 3 -10 -3 -10 -14 0 -12 -4
-21 -10 -21 -5 0 -10 -9 -10 -20 0 -16 -7 -20 -37 -20 -29 0 -35 -3 -23 -11
11 -7 -1 -8 -40 -3 -30 3 -58 11 -61 16 -3 5 -26 11 -50 13 -28 2 -44 8 -44
16 0 7 -15 17 -32 23 -34 9 -43 29 -20 43 8 4 22 20 32 35 14 23 22 27 44 21
34 -8 69 -35 64 -50 -3 -7 -21 -15 -40 -19 -34 -6 -35 -8 -18 -20 25 -19 65
-18 65 1 0 8 6 15 13 15 8 0 8 3 -2 9 -18 12 35 22 95 18 30 -1 40 2 37 11 -3
6 0 12 7 12 7 0 6 6 -4 16 -9 8 -16 19 -16 24 0 4 -11 11 -25 14 -14 4 -25 11
-25 16 0 6 -6 10 -14 10 -7 0 -19 7 -26 15 -7 8 -21 15 -31 15 -11 0 -36 9
-56 20 -21 11 -32 20 -25 20 6 0 12 5 12 11 0 6 -6 9 -13 6 -8 -3 -20 -1 -28
4 -11 7 -11 9 2 9 20 0 30 21 22 49 -5 19 -1 21 46 21 39 0 49 3 45 14 -3 9 3
17 15 21 14 4 21 15 21 31 l0 24 -176 0 c-152 0 -175 -2 -165 -14z m231 -286
c0 -5 -4 -10 -10 -10 -5 0 -10 5 -10 10 0 6 5 10 10 10 6 0 10 -4 10 -10z
m-830 -230 c0 -5 -2 -10 -4 -10 -3 0 -8 5 -11 10 -3 6 -1 10 4 10 6 0 11 -4
11 -10z"/>
<path d="M6280 7305 c-10 -12 -10 -21 -1 -42 9 -20 9 -30 -3 -47 -31 -43 -43
-56 -55 -56 -6 0 -16 -9 -23 -20 -7 -11 -18 -20 -24 -20 -7 0 -14 -7 -18 -15
-3 -8 -12 -12 -20 -9 -9 3 -21 -5 -31 -20 -10 -14 -21 -23 -26 -20 -5 3 -9 0
-9 -5 0 -6 -7 -11 -15 -11 -23 0 -83 -42 -96 -67 -7 -13 -18 -23 -26 -23 -7 0
-13 -7 -13 -15 0 -10 -10 -15 -30 -15 -18 0 -30 -5 -30 -13 0 -14 -56 -67 -71
-67 -5 0 -9 -4 -9 -10 0 -5 -6 -10 -14 -10 -19 0 -46 -39 -46 -66 0 -12 -8
-25 -17 -28 -28 -11 1 -23 43 -18 26 3 38 11 44 28 5 13 15 24 21 24 7 0 10 3
7 6 -8 7 28 44 42 44 6 0 10 7 10 15 0 9 9 15 25 15 21 0 25 5 25 28 0 32 50
92 77 92 10 0 42 23 72 50 32 29 64 50 77 50 21 0 22 -3 17 -37 -5 -27 -20
-50 -57 -86 -40 -39 -47 -50 -35 -58 20 -14 140 -1 160 17 8 7 22 14 30 14 8
0 27 11 42 26 28 26 47 25 47 -2 0 -10 8 -14 23 -12 22 3 52 -24 75 -68 10
-18 18 -20 74 -16 58 4 66 8 100 43 21 22 42 39 47 39 6 0 19 10 31 22 11 12
20 16 20 10 0 -7 5 -12 12 -12 6 0 22 -10 35 -22 18 -17 26 -19 32 -10 6 9 12
7 26 -8 18 -20 18 -22 -13 -84 -36 -73 -38 -80 -17 -72 8 3 18 -1 22 -8 5 -7
16 -15 26 -19 21 -8 23 -37 2 -37 -8 0 -15 -4 -15 -9 0 -5 -9 -11 -20 -14 -13
-3 -20 0 -20 10 0 8 -4 11 -10 8 -5 -3 -10 -15 -10 -26 0 -10 -4 -19 -10 -19
-5 0 -10 -7 -10 -15 0 -8 -8 -15 -17 -15 -15 0 -16 -2 -3 -10 13 -8 11 -11 -7
-16 -31 -8 -30 -40 0 -46 27 -5 68 8 79 25 4 6 10 8 14 4 4 -3 -4 -16 -17 -28
-19 -16 -20 -19 -5 -15 17 6 18 2 12 -33 -4 -27 -2 -41 6 -43 10 -4 10 -10 0
-32 -6 -15 -12 -38 -12 -51 0 -14 -4 -25 -10 -25 -5 0 -10 -15 -10 -34 0 -28
-6 -38 -30 -53 -16 -9 -30 -20 -30 -24 0 -17 -30 -16 -49 2 -12 11 -21 16 -21
12 0 -4 -5 -1 -10 7 -8 11 -9 8 -4 -12 4 -18 2 -28 -5 -28 -17 0 -61 -53 -56
-67 2 -7 0 -13 -5 -13 -20 0 -9 -17 18 -26 19 -7 34 -6 53 3 32 16 52 10 69
-22 7 -13 18 -21 26 -18 8 3 18 -6 25 -24 6 -15 17 -41 25 -56 8 -16 12 -32
10 -35 -6 -11 42 -53 49 -42 3 6 4 14 0 19 -3 5 8 19 23 30 26 18 39 51 21 51
-9 0 -2 46 12 72 5 10 14 18 19 18 6 0 16 15 24 33 12 27 14 28 15 10 1 -16 6
-21 16 -16 12 4 14 15 10 44 l-6 39 41 0 c34 0 40 3 40 21 0 19 4 20 48 13 26
-3 55 -10 64 -15 25 -13 31 -11 25 11 -4 14 0 20 11 20 24 0 39 -12 44 -35 2
-11 8 -19 14 -18 5 1 10 -22 12 -50 2 -35 9 -58 22 -72 20 -19 20 -17 20 392
0 239 -4 422 -10 437 -6 16 -6 27 0 31 13 8 13 92 -1 100 -5 4 -9 17 -7 28 1
12 -1 28 -6 35 -4 7 -3 18 3 25 7 9 7 17 0 27 -8 11 -12 12 -16 3 -6 -16 -28
-17 -52 -1 -10 6 -26 8 -36 4 -17 -6 -17 -27 -1 -81 5 -15 -2 -25 -30 -44 -28
-17 -33 -25 -23 -31 11 -7 10 -12 -4 -28 -9 -10 -17 -24 -17 -30 0 -7 -5 -12
-12 -12 -6 0 -24 -15 -39 -32 -16 -18 -28 -27 -29 -21 0 10 -6 10 -25 1 -13
-6 -22 -14 -20 -19 8 -12 -6 -39 -21 -39 -17 0 -18 -16 -1 -24 10 -5 10 -7 0
-12 -7 -3 -13 -14 -13 -24 0 -19 19 -30 52 -30 21 0 48 -22 48 -39 0 -6 4 -11
8 -11 5 0 14 -12 21 -26 10 -23 16 -26 54 -22 52 6 102 -23 94 -54 -3 -11 -3
-17 0 -14 3 3 12 -2 19 -12 11 -14 15 -15 23 -3 7 11 11 10 20 -8 11 -19 9
-21 -20 -21 -18 0 -37 6 -43 14 -6 8 -21 17 -34 21 -19 5 -25 2 -29 -14 -4
-16 -13 -21 -39 -21 -19 0 -34 -4 -34 -9 0 -5 -14 -15 -32 -24 -23 -11 -37
-13 -54 -5 -15 7 -28 8 -36 1 -7 -5 -29 -6 -48 -2 -19 3 -26 7 -15 8 15 2 11
6 -15 17 -20 8 -41 23 -47 33 -14 23 -6 61 13 61 13 0 18 13 15 33 -3 15 39
66 58 72 22 7 17 55 -6 55 -10 0 -12 6 -7 22 4 12 6 50 6 83 -2 78 20 129 51
119 12 -3 27 -10 33 -15 18 -15 52 2 64 32 7 15 18 34 26 40 19 16 19 103 0
96 -10 -4 -14 4 -14 30 0 43 -21 65 -87 92 -27 11 -43 20 -33 20 11 1 15 7 11
21 -5 19 -14 20 -129 20 -68 0 -124 -4 -124 -9 0 -5 -9 -7 -20 -4 -15 4 -19 2
-14 -10 4 -11 -4 -17 -35 -22 -23 -4 -41 -12 -41 -18 0 -29 -17 15 -19 51 -1
9 -39 12 -155 12 -126 0 -156 -3 -166 -15z m40 -185 c-6 -11 -15 -20 -20 -20
-4 0 -15 -3 -24 -6 -9 -3 -16 -2 -16 3 0 8 20 20 68 42 1 0 -2 -8 -8 -19z
m124 -6 c9 -8 16 -19 16 -23 0 -14 -38 -42 -56 -42 -26 1 -94 12 -94 16 0 16
15 35 29 35 9 1 27 7 41 15 32 19 45 18 64 -1z m451 -384 c3 -5 2 -10 -4 -10
-5 0 -13 5 -16 10 -3 6 -2 10 4 10 5 0 13 -4 16 -10z m148 -443 c3 -8 -10 -12
-46 -12 -66 0 -73 20 -8 23 31 1 51 -3 54 -11z m-50 -44 c-7 -2 -19 -2 -25 0
-7 3 -2 5 12 5 14 0 19 -2 13 -5z"/>
<path d="M7134 7303 c2 -10 7 -28 11 -40 5 -17 2 -23 -9 -23 -20 0 -20 -29 0
-58 22 -31 40 -27 49 11 6 25 9 28 12 12 10 -40 21 -36 27 10 4 25 4 59 1 75
-6 28 -10 30 -51 30 -38 0 -45 -3 -40 -17z"/>
<path d="M2720 7231 c0 -11 26 -22 34 -14 12 12 5 23 -14 23 -11 0 -20 -4 -20
-9z"/>
<path d="M5631 7223 c-14 -3 -44 -24 -67 -48 -33 -34 -43 -53 -46 -87 -3 -24
-1 -51 4 -60 4 -9 8 -57 8 -107 0 -54 4 -93 11 -97 16 -10 73 25 86 53 11 24
11 25 -13 20 -31 -6 -54 24 -54 70 0 43 9 46 55 19 30 -16 39 -28 38 -44 -2
-16 3 -22 17 -22 11 0 20 4 20 8 0 5 16 14 35 22 19 8 35 18 35 24 0 5 7 17
15 26 16 18 11 80 -6 80 -5 0 -9 12 -9 28 0 96 -40 132 -129 115z"/>
<path d="M2670 7212 c0 -12 19 -26 26 -19 2 2 -2 10 -11 17 -9 8 -15 8 -15 2z"/>
<path d="M6000 7185 c0 -9 6 -12 15 -9 8 4 15 10 15 15 0 5 -7 9 -15 9 -8 0
-15 -7 -15 -15z"/>
<path d="M2761 7143 c-1 -13 -7 -23 -16 -23 -8 0 -15 -7 -15 -15 0 -9 -7 -18
-16 -22 -12 -4 -8 -13 22 -44 21 -22 43 -39 50 -39 14 0 26 -28 18 -41 -8 -13
15 -39 33 -39 11 0 14 7 9 28 l-7 27 19 -24 c14 -18 21 -20 24 -10 4 11 9 11
25 -4 11 -9 41 -24 66 -33 26 -9 49 -20 53 -25 3 -5 14 -9 26 -9 17 0 19 4 13
23 -4 12 -8 50 -9 84 -1 64 -22 103 -55 103 -9 0 -24 7 -35 15 -11 8 -30 12
-46 8 -15 -3 -38 1 -51 8 -30 17 -60 20 -76 7 -9 -7 -14 -6 -17 3 -13 41 -14
43 -15 22z"/>
<path d="M5250 7126 c0 -14 48 -32 58 -22 2 3 -1 12 -8 21 -16 19 -50 20 -50
1z"/>
<path d="M3529 7107 c-53 -20 -107 -65 -114 -95 -13 -55 -50 -106 -84 -115
-25 -6 -31 -11 -22 -20 18 -18 13 -40 -8 -34 -17 4 -18 2 -10 -20 5 -14 7 -29
4 -33 -6 -9 22 -2 95 25 25 9 53 14 63 11 9 -2 15 -1 12 4 -3 4 2 11 11 14 24
9 28 7 14 -9 -7 -8 -9 -15 -4 -15 5 -1 30 -2 55 -4 53 -4 64 0 71 30 5 18 2
21 -16 16 -11 -3 -18 -2 -14 3 9 9 -14 34 -27 28 -10 -3 -14 13 -17 67 -1 16
11 39 30 60 18 19 32 40 32 47 0 7 11 13 24 13 24 0 43 16 32 27 -12 12 -93
12 -127 0z m8 -253 c-3 -3 -12 -4 -19 -1 -8 3 -5 6 6 6 11 1 17 -2 13 -5z"/>
<path d="M5300 6991 c0 -5 -12 -12 -26 -15 -22 -6 -25 -11 -21 -34 37 -177 50
-222 66 -222 16 0 20 28 9 67 -6 21 -8 65 -5 98 6 65 0 115 -14 115 -5 0 -9
-4 -9 -9z"/>
<path d="M2791 6914 c0 -7 -22 -15 -48 -19 -29 -4 -42 -10 -33 -15 7 -4 13
-19 13 -33 0 -14 6 -28 13 -31 16 -6 19 -52 3 -61 -6 -5 -4 -12 7 -20 15 -10
17 -27 16 -101 -3 -100 14 -174 38 -174 9 0 21 -5 28 -12 7 -7 12 -8 12 -3 0
5 6 1 13 -8 12 -17 58 -33 55 -19 -3 12 41 90 54 95 10 4 10 6 -1 6 -8 1 -20
-7 -27 -16 -12 -16 -12 -14 -3 13 12 36 74 98 116 116 15 7 31 17 36 23 4 7
10 6 15 -2 5 -8 14 -7 32 4 14 8 17 12 8 9 -19 -6 -25 9 -8 19 6 3 10 11 10
17 0 6 -11 1 -25 -12 -14 -13 -25 -19 -25 -13 0 5 -16 18 -37 29 -44 23 -83
57 -83 73 0 6 -7 11 -15 11 -18 0 -19 12 -4 27 7 7 3 12 -16 17 -14 4 -31 4
-36 0 -6 -3 -19 3 -30 15 -11 11 -30 23 -44 27 -14 3 -26 15 -28 27 -2 12 -5
17 -6 11z"/>
<path d="M3810 6851 c0 -10 19 -25 25 -20 1 2 -3 10 -11 17 -8 7 -14 8 -14 3z"/>
<path d="M5738 6843 c7 -3 16 -2 19 1 4 3 -2 6 -13 5 -11 0 -14 -3 -6 -6z"/>
<path d="M6016 6824 c-12 -31 -6 -56 14 -61 11 -3 20 -14 20 -24 0 -11 7 -19
15 -19 8 0 15 7 15 15 0 8 7 15 15 15 21 0 19 22 -5 43 -11 9 -20 24 -20 32 0
20 -46 20 -54 -1z"/>
<path d="M3848 6773 c7 -3 16 -2 19 1 4 3 -2 6 -13 5 -11 0 -14 -3 -6 -6z"/>
<path d="M3890 6769 c0 -5 9 -9 20 -9 11 0 20 2 20 4 0 2 -9 6 -20 9 -11 3
-20 1 -20 -4z"/>
<path d="M3795 6750 c4 -6 11 -8 16 -5 14 9 11 15 -7 15 -8 0 -12 -5 -9 -10z"/>
<path d="M3968 6743 c6 -2 18 -2 25 0 6 3 1 5 -13 5 -14 0 -19 -2 -12 -5z"/>
<path d="M3810 6720 c0 -5 5 -10 11 -10 5 0 7 5 4 10 -3 6 -8 10 -11 10 -2 0
-4 -4 -4 -10z"/>
<path d="M6742 6700 c0 -14 2 -19 5 -12 2 6 2 18 0 25 -3 6 -5 1 -5 -13z"/>
<path d="M6800 6704 c0 -8 5 -12 10 -9 6 4 8 11 5 16 -9 14 -15 11 -15 -7z"/>
<path d="M3990 6694 l-25 -15 25 7 c25 7 25 7 6 -15 -19 -21 -19 -21 11 -21
16 0 45 -11 63 -25 21 -15 36 -21 38 -15 2 6 2 12 1 13 -30 19 -85 77 -76 81
7 3 6 5 -3 5 -8 0 -26 -6 -40 -15z m71 -41 c13 -17 13 -17 -6 -3 -11 8 -22 16
-24 17 -2 2 0 3 6 3 6 0 17 -8 24 -17z"/>
<path d="M5725 6658 c-16 -10 -28 -24 -26 -31 11 -41 8 -77 -9 -92 -18 -17
-20 -16 -44 12 -16 19 -35 29 -57 31 -47 4 -55 23 -17 43 28 14 29 17 14 26
-27 15 -60 4 -73 -24 -14 -29 -9 -43 13 -43 17 0 18 -13 2 -57 -9 -23 -9 -44
-2 -71 5 -20 7 -68 4 -107 -7 -85 12 -142 35 -105 3 6 15 10 25 10 23 0 37 20
20 30 -9 5 -9 9 -1 14 15 10 14 66 -1 66 -7 0 2 15 20 33 18 18 32 38 32 45 0
8 18 12 50 12 49 0 50 1 50 30 0 26 -4 30 -27 30 -20 0 -24 3 -14 9 8 5 12 18
9 29 -4 14 0 22 13 25 11 3 19 14 19 24 0 10 6 25 12 31 9 9 10 15 2 20 -6 4
-13 12 -15 18 -3 7 -15 4 -34 -8z"/>
<path d="M4207 6593 c-3 -5 -2 -15 2 -22 7 -10 10 -10 16 -1 4 6 3 16 -3 22
-5 5 -12 6 -15 1z"/>
<path d="M5728 6433 c6 -2 18 -2 25 0 6 3 1 5 -13 5 -14 0 -19 -2 -12 -5z"/>
<path d="M4225 6420 c3 -5 11 -10 16 -10 6 0 7 5 4 10 -3 6 -11 10 -16 10 -6
0 -7 -4 -4 -10z"/>
<path d="M4775 6370 c-3 -5 1 -10 9 -10 9 0 16 5 16 10 0 6 -4 10 -9 10 -6 0
-13 -4 -16 -10z"/>
<path d="M4160 6356 c0 -8 4 -17 9 -20 5 -4 7 3 4 14 -6 23 -13 26 -13 6z"/>
<path d="M4193 6337 c-8 -17 -7 -27 1 -39 10 -14 12 -10 12 23 0 21 0 39 -1
39 -1 0 -6 -10 -12 -23z"/>
<path d="M4720 6344 c0 -9 7 -14 17 -12 25 5 28 28 4 28 -12 0 -21 -6 -21 -16z"/>
<path d="M4590 6250 c0 -13 20 -13 40 0 12 8 9 10 -12 10 -16 0 -28 -4 -28
-10z"/>
<path d="M4776 6171 c-3 -5 1 -14 9 -21 13 -10 15 -9 15 9 0 21 -14 28 -24 12z"/>
<path d="M6088 6157 c-57 -22 -81 -37 -60 -37 7 0 12 -13 12 -28 0 -16 2 -31
5 -34 3 -2 31 1 63 9 31 7 74 15 95 18 32 5 37 9 37 33 0 40 -11 50 -55 56
-27 3 -58 -2 -97 -17z"/>
<path d="M4579 6124 c-7 -8 -20 -13 -30 -11 -12 3 -16 0 -12 -9 3 -8 9 -11 14
-8 12 7 -13 -49 -25 -58 -14 -10 34 -26 66 -23 43 5 52 14 33 35 -9 10 -14 24
-10 30 4 6 1 17 -5 25 -10 11 -10 15 -1 15 7 0 9 5 6 10 -9 14 -21 12 -36 -6z
m51 -88 c0 -9 -30 -14 -35 -6 -4 6 3 10 14 10 12 0 21 -2 21 -4z"/>
<path d="M4243 6115 c0 -7 6 -11 14 -8 7 3 13 6 13 8 0 2 -6 5 -13 8 -8 3 -14
-1 -14 -8z"/>
<path d="M4372 6115 c10 -29 32 -65 40 -65 5 0 4 8 -1 18 -12 22 -43 60 -39
47z"/>
<path d="M3570 6080 c-68 -12 -93 -25 -112 -57 l-17 -29 31 4 c21 3 29 1 24
-7 -4 -6 -13 -11 -20 -11 -13 0 -56 -41 -56 -53 0 -4 9 2 21 14 25 25 80 49
111 48 13 0 17 -3 11 -6 -7 -2 -13 -9 -13 -14 0 -5 13 -3 30 6 43 22 70 19
164 -20 33 -14 8 14 -27 30 l-32 15 34 -5 c19 -3 44 -13 55 -22 17 -14 16 -12
-2 7 -21 24 -28 25 -135 25 l-113 0 51 21 c27 11 54 17 60 12 5 -4 18 -8 30
-8 16 0 17 2 5 10 -8 5 -10 10 -5 10 6 0 3 5 -5 10 -13 9 -13 10 0 11 10 0 8
3 -5 9 -23 10 -26 10 -85 0z"/>
<path d="M4640 6074 c0 -8 5 -12 10 -9 6 3 10 10 10 16 0 5 -4 9 -10 9 -5 0
-10 -7 -10 -16z"/>
<path d="M6010 6060 c-17 -11 -8 -23 14 -18 9 2 12 8 8 15 -5 8 -13 9 -22 3z"/>
<path d="M4325 6030 c3 -5 11 -10 16 -10 6 0 7 5 4 10 -3 6 -11 10 -16 10 -6
0 -7 -4 -4 -10z"/>
<path d="M5933 6029 c-12 -4 -25 -14 -30 -21 -13 -22 -73 -37 -160 -42 -65 -3
-86 -8 -104 -25 -13 -12 -26 -21 -31 -21 -4 0 -8 -15 -8 -33 0 -30 -5 -36 -40
-52 -44 -20 -50 -40 -27 -88 17 -38 34 -34 54 13 14 32 24 41 50 46 17 3 36 3
42 0 6 -4 19 -1 29 5 23 15 87 -14 78 -36 -3 -8 2 -34 10 -58 12 -36 21 -46
47 -54 30 -8 32 -12 35 -56 2 -28 -1 -47 -7 -47 -6 0 -11 -5 -11 -10 0 -6 -10
-24 -21 -40 l-22 -29 27 -55 c22 -45 32 -56 59 -61 52 -10 105 -38 116 -62 6
-12 24 -29 41 -38 16 -8 30 -22 30 -29 0 -8 7 -17 16 -20 24 -9 54 -7 54 4 0
13 32 50 43 50 5 0 16 -7 24 -16 33 -33 138 13 165 72 8 18 14 21 24 13 19
-16 66 18 59 42 -4 13 -1 19 8 19 22 0 28 26 21 96 -6 61 -8 64 -33 64 -22 0
-29 -8 -48 -59 -13 -32 -23 -63 -23 -70 0 -6 -10 -11 -22 -11 -21 0 -148 120
-148 140 0 5 -11 30 -24 55 -34 62 -40 118 -23 185 9 33 11 59 6 65 -5 5 -9
17 -9 27 0 30 -21 64 -49 81 -16 9 -31 14 -35 10 -3 -3 -9 7 -12 24 -6 29 -7
29 -67 30 -34 0 -72 -3 -84 -8z m0 -336 c12 -11 -14 -33 -39 -33 -28 0 -31 15
-6 29 20 12 36 14 45 4z"/>
<path d="M4585 5990 c4 -6 11 -8 16 -5 14 9 11 15 -7 15 -8 0 -12 -5 -9 -10z"/>
<path d="M3517 5942 c-21 -23 -21 -32 -1 -32 11 0 14 -6 9 -22 -6 -20 -3 -19
27 10 38 36 58 41 58 13 0 -10 6 -23 13 -29 18 -15 69 -2 74 19 6 21 18 25 28
9 7 -12 35 -13 35 -2 0 4 -19 17 -42 29 -40 19 -107 23 -145 8 -7 -2 -15 0
-18 5 -9 15 -20 12 -38 -8z m156 -19 c3 -5 -6 -9 -19 -9 -13 -1 -24 2 -24 7 0
11 37 12 43 2z"/>
<path d="M3798 5903 c6 -63 12 -68 12 -10 0 35 4 47 18 50 11 3 8 5 -9 6 -26
1 -26 0 -21 -46z"/>
<path d="M4485 5941 c-6 -11 9 -23 19 -14 9 9 7 23 -3 23 -6 0 -12 -4 -16 -9z"/>
<path d="M6510 5921 c0 -5 -3 -16 -6 -25 -4 -11 -1 -16 10 -16 9 0 16 -4 16
-10 0 -5 7 -10 15 -10 19 0 19 0 -1 38 -15 30 -34 43 -34 23z"/>
<path d="M3413 5875 c0 -22 2 -30 4 -17 2 12 2 30 0 40 -3 9 -5 -1 -4 -23z"/>
<path d="M6480 5871 c0 -5 7 -12 16 -15 11 -4 15 -14 12 -31 -4 -19 -1 -25 13
-25 27 0 24 32 -4 58 -25 23 -37 28 -37 13z"/>
<path d="M5157 5853 c-9 -8 -9 -48 0 -56 3 -4 12 -2 19 4 9 7 19 7 33 -1 12
-6 21 -8 21 -4 0 3 7 1 15 -6 13 -11 15 -8 15 19 0 37 -26 53 -45 27 -12 -15
-13 -15 -18 4 -5 19 -27 27 -40 13z"/>
<path d="M3802 5810 c0 -14 2 -19 5 -12 2 6 2 18 0 25 -3 6 -5 1 -5 -13z"/>
<path d="M3420 5819 c0 -4 6 -22 14 -41 15 -36 46 -69 46 -50 0 6 -5 14 -10
17 -6 3 -19 23 -30 43 -10 20 -19 34 -20 31z"/>
<path d="M4170 5790 c0 -13 7 -20 20 -20 18 0 19 3 10 20 -6 11 -15 20 -20 20
-6 0 -10 -9 -10 -20z"/>
<path d="M3515 5690 c17 -11 39 -20 50 -20 12 0 3 8 -24 20 -55 25 -64 25 -26
0z"/>
<path d="M3640 5681 c-30 -3 -50 -9 -45 -12 10 -7 114 6 123 16 3 3 -1 4 -9 3
-8 -1 -39 -4 -69 -7z"/>
<path d="M5514 5655 c-4 -8 -3 -26 0 -40 5 -18 13 -25 31 -25 14 0 25 -6 25
-12 0 -17 51 -41 63 -29 5 5 1 11 -10 15 -11 3 -26 22 -33 41 -8 19 -20 35
-27 35 -8 0 -16 7 -19 15 -8 19 -23 19 -30 0z"/>
<path d="M3268 5630 c-2 -8 5 -25 17 -38 16 -17 21 -33 18 -55 -3 -18 -4 -44
-4 -59 0 -16 -4 -28 -9 -28 -5 0 -7 8 -4 18 4 12 0 10 -15 -7 -24 -27 -26 -58
-6 -85 15 -20 16 -20 78 3 75 28 171 43 250 37 41 -3 57 -1 54 7 -2 7 -8 12
-13 12 -5 0 -15 4 -21 8 -8 5 -13 3 -13 -4 0 -8 -13 -10 -47 -4 -27 4 -88 8
-137 9 -73 1 -90 5 -92 17 -1 11 5 16 20 14 11 0 29 6 39 14 15 13 17 13 12 0
-4 -10 2 -15 20 -17 16 -1 25 3 25 13 0 8 7 15 16 15 8 0 12 5 9 11 -4 6 -14
8 -22 5 -9 -4 -17 1 -20 14 -3 11 -10 20 -15 20 -5 0 -7 4 -3 9 3 5 -4 12 -15
16 -11 3 -20 11 -20 16 0 5 -15 9 -34 9 -24 0 -38 7 -48 22 -11 17 -16 19 -20
8z"/>
<path d="M3420 5630 c-16 -10 -8 -15 43 -23 31 -5 32 -4 11 17 -18 18 -32 20
-54 6z"/>
<path d="M6705 5610 c-3 -5 -1 -10 4 -10 6 0 11 5 11 10 0 6 -2 10 -4 10 -3 0
-8 -4 -11 -10z"/>
<path d="M6480 5580 c0 -5 5 -10 11 -10 5 0 7 5 4 10 -3 6 -8 10 -11 10 -2 0
-4 -4 -4 -10z"/>
<path d="M4100 5522 c0 -33 6 -38 29 -23 11 7 10 13 -8 32 l-21 23 0 -32z"/>
<path d="M5107 5407 c-4 -10 -7 -26 -7 -35 1 -15 2 -15 11 1 6 10 9 25 7 35
-3 16 -4 15 -11 -1z"/>
<path d="M3430 5306 c0 -2 7 -6 15 -10 8 -3 15 -1 15 4 0 6 -7 10 -15 10 -8 0
-15 -2 -15 -4z"/>
<path d="M3710 4769 c0 -5 5 -7 10 -4 6 3 10 8 10 11 0 2 -4 4 -10 4 -5 0 -10
-5 -10 -11z"/>
<path d="M3755 4640 c-3 -5 1 -10 10 -10 9 0 13 5 10 10 -3 6 -8 10 -10 10 -2
0 -7 -4 -10 -10z"/>
<path d="M3765 4590 c-3 -6 1 -7 9 -4 18 7 21 14 7 14 -6 0 -13 -4 -16 -10z"/>
<path d="M2640 4400 c0 -6 7 -10 15 -10 8 0 15 2 15 4 0 2 -7 6 -15 10 -8 3
-15 1 -15 -4z"/>
<path d="M3461 4383 c0 -13 -2 -26 -3 -30 -9 -33 -13 -103 -5 -103 5 0 7 -6 4
-14 -3 -7 -2 -17 3 -22 7 -8 15 -42 25 -109 2 -11 10 -45 19 -75 13 -46 21
-87 25 -122 1 -5 5 -8 10 -8 12 0 -27 183 -42 192 -8 5 -8 8 -1 8 8 0 8 16 -2
58 -7 31 -17 100 -22 152 -5 52 -10 85 -11 73z"/>
<path d="M7293 4053 c-7 -2 -13 -14 -13 -26 -1 -24 -22 -57 -36 -57 -17 0
-107 -70 -141 -110 -42 -48 -40 -71 7 -85 19 -6 60 -25 90 -43 30 -17 61 -32
68 -32 6 0 12 -4 12 -9 0 -5 9 -11 20 -14 19 -5 20 0 20 189 0 107 -3 194 -7
193 -5 0 -14 -3 -20 -6z"/>
<path d="M3650 3930 c0 -5 5 -10 10 -10 6 0 10 5 10 10 0 6 -4 10 -10 10 -5 0
-10 -4 -10 -10z"/>
<path d="M3536 3875 c4 -8 8 -15 10 -15 2 0 4 7 4 15 0 8 -4 15 -10 15 -5 0
-7 -7 -4 -15z"/>
<path d="M3553 3810 c4 -14 7 -31 7 -37 0 -7 4 -13 9 -13 6 0 6 12 1 31 -11
38 -26 55 -17 19z"/>
<path d="M3571 3740 c0 -8 4 -24 9 -35 l9 -20 0 20 c0 11 -4 27 -9 35 -9 13
-10 13 -9 0z"/>
<path d="M3610 3730 c0 -5 5 -10 11 -10 5 0 7 5 4 10 -3 6 -8 10 -11 10 -2 0
-4 -4 -4 -10z"/>
<path d="M3495 3526 c-16 -18 -15 -33 1 -33 8 0 14 4 14 8 0 4 8 5 18 3 10 -3
22 3 30 16 10 16 10 20 -1 20 -7 0 -19 -6 -25 -12 -10 -10 -15 -10 -20 -2 -5
9 -10 9 -17 0z"/>
<path d="M3810 2975 c0 -8 4 -15 10 -15 5 0 7 7 4 15 -4 8 -8 15 -10 15 -2 0
-4 -7 -4 -15z"/>
<path d="M1040 1560 c0 -5 7 -10 16 -10 8 0 12 5 9 10 -3 6 -10 10 -16 10 -5
0 -9 -4 -9 -10z"/>
<path d="M480 1516 c0 -9 5 -16 10 -16 6 0 10 4 10 9 0 6 -4 13 -10 16 -5 3
-10 -1 -10 -9z"/>
<path d="M1258 1508 c-15 -12 -39 -21 -55 -22 -20 -1 -27 -5 -24 -16 2 -8 6
-27 8 -42 3 -15 13 -28 24 -31 10 -3 19 -12 19 -21 0 -9 5 -16 10 -16 10 0 12
5 14 33 1 6 8 18 16 24 13 11 13 14 1 22 -12 8 -12 12 2 26 10 9 17 27 17 41
0 28 2 28 -32 2z"/>
<path d="M1134 1464 c3 -9 6 -28 7 -42 0 -25 1 -25 13 8 15 39 12 50 -11 50
-10 0 -13 -6 -9 -16z"/>
<path d="M900 1359 c0 -6 -7 -9 -15 -5 -20 7 -19 -7 3 -34 13 -16 24 -20 44
-15 26 7 26 7 10 36 -17 28 -42 39 -42 18z"/>
<path d="M1759 1361 c-14 -5 -36 -14 -50 -22 -23 -13 -29 -15 -47 -18 -5 0
-14 -13 -21 -27 -12 -28 1 -60 21 -48 5 3 20 -4 33 -16 20 -19 30 -21 71 -14
65 9 76 11 95 19 9 3 21 -1 29 -10 21 -25 48 -17 90 25 40 40 52 67 26 57 -8
-3 -17 -3 -21 1 -3 4 -20 7 -37 8 -17 1 -34 7 -38 14 -21 33 -92 48 -151 31z"/>
<path d="M581 1336 c-9 -10 -8 -16 3 -26 12 -9 20 -9 37 3 21 15 21 15 1 26
-26 14 -27 14 -41 -3z"/>
<path d="M2288 1293 c-62 -4 -88 -22 -65 -44 7 -8 22 -28 32 -46 15 -26 24
-31 44 -27 65 13 101 29 106 46 4 10 14 18 23 19 14 0 13 2 -3 9 -11 4 -28 18
-37 29 -10 12 -23 20 -30 19 -7 -1 -39 -3 -70 -5z"/>
<path d="M264 1276 c-30 -21 -100 -28 -115 -10 -6 8 -20 14 -30 14 -15 0 -18
-6 -15 -23 4 -26 -5 -49 -20 -46 -21 4 -26 -2 -14 -16 7 -8 28 -15 47 -15 20
0 43 -8 56 -20 24 -23 68 -20 98 6 8 8 25 14 36 14 30 0 41 19 40 65 -2 37 -4
40 -32 43 -16 1 -39 -4 -51 -12z"/>
<path d="M827 1284 c-14 -14 -7 -25 13 -22 12 2 21 8 21 13 0 12 -24 18 -34 9z"/>
<path d="M781 1246 c-20 -11 -21 -14 -6 -19 23 -9 22 -10 28 13 3 11 4 20 4
20 -1 -1 -13 -7 -26 -14z"/>
<path d="M1760 1173 c0 -13 -5 -23 -11 -23 -5 0 -7 5 -4 10 13 21 -26 22 -41
1 -17 -24 -72 -29 -92 -9 -7 7 -12 8 -12 2 0 -5 -9 -10 -20 -11 -11 -1 -20 2
-20 8 0 5 -4 9 -10 9 -13 0 -13 -50 0 -70 7 -12 10 -12 10 -1 0 7 6 11 15 7 8
-3 21 1 29 9 19 20 46 19 46 -1 0 -8 5 -12 10 -9 6 4 8 11 5 16 -10 15 17 10
36 -7 25 -23 109 -28 134 -9 17 13 18 17 5 25 -16 10 -15 12 15 28 17 10 18
11 3 12 -10 0 -18 6 -18 14 0 9 -14 15 -40 18 -36 3 -40 1 -40 -19z"/>
<path d="M1902 1164 c-13 -10 -6 -14 41 -24 31 -6 57 -16 57 -23 0 -7 4 -6 13
2 10 11 10 14 0 18 -7 3 -13 13 -13 24 0 15 -7 18 -41 16 -23 -1 -49 -7 -57
-13z m45 -10 c-3 -3 -12 -4 -19 -1 -8 3 -5 6 6 6 11 1 17 -2 13 -5z"/>
<path d="M1039 1163 c-1 -5 -1 -16 0 -25 3 -24 -64 -55 -121 -56 -27 -1 -48 3
-48 8 0 15 -28 12 -33 -2 -3 -10 -7 -10 -20 1 -10 8 -17 9 -17 3 0 -6 -16 -9
-39 -7 -23 2 -47 -2 -58 -10 -30 -23 -100 -19 -127 8 -54 54 -54 53 -92 12
-44 -48 -54 -84 -28 -98 27 -15 104 -21 104 -8 0 19 37 12 42 -7 13 -50 181
-47 208 4 7 13 17 24 22 24 5 0 6 -4 3 -10 -11 -17 8 -11 31 11 18 17 35 21
87 21 35 0 83 -6 106 -12 40 -11 78 -9 112 4 8 4 28 2 42 -3 17 -7 36 -7 51
-1 20 7 27 5 38 -12 18 -28 38 -16 38 23 0 16 5 38 12 49 15 24 10 29 -32 34
-19 2 -36 9 -38 15 -3 9 -8 9 -17 1 -8 -7 -21 -7 -37 -1 -15 5 -30 6 -39 0
-22 -14 -68 -11 -106 7 -25 12 -31 19 -21 25 10 7 9 9 -4 9 -10 0 -19 -3 -19
-7z m-54 -99 c13 -5 14 -8 3 -15 -19 -13 -28 -11 -28 6 0 17 2 18 25 9z"/>
<path d="M1521 1144 c0 -11 3 -14 6 -6 3 7 2 16 -1 19 -3 4 -6 -2 -5 -13z"/>
<path d="M6172 1097 c-30 -17 -11 -37 35 -37 28 0 33 4 33 23 0 27 -32 33 -68
14z"/>
<path d="M5875 1079 c-11 -4 -15 -8 -8 -8 6 -1 15 -10 18 -21 9 -27 20 -25 23
5 2 29 -6 35 -33 24z"/>
<path d="M6043 1032 c-24 -2 -43 -7 -43 -13 0 -13 77 -11 85 2 9 14 7 14 -42
11z"/>
<path d="M7061 1016 c-12 -12 -21 -28 -21 -34 0 -7 -5 -12 -11 -12 -7 0 0 -11
15 -25 34 -31 83 -33 114 -5 21 20 21 22 6 46 -16 24 -47 46 -71 50 -6 1 -21
-8 -32 -20z"/>
<path d="M2230 964 c0 -23 12 -44 25 -44 7 0 15 -5 17 -11 2 -7 13 -9 26 -5
17 6 22 15 22 42 l0 35 -45 -2 c-28 -2 -45 -7 -45 -15z"/>
<path d="M1777 943 c-4 -3 -35 -7 -68 -9 -77 -3 -88 -13 -61 -52 16 -22 32
-31 64 -35 23 -3 45 -1 49 4 3 5 22 10 42 11 20 1 37 5 37 10 0 4 -4 8 -10 8
-5 0 -10 16 -10 35 0 27 -4 35 -18 35 -10 0 -22 -3 -25 -7z"/>
<path d="M5930 929 c0 -5 5 -7 10 -4 6 3 10 8 10 11 0 2 -4 4 -10 4 -5 0 -10
-5 -10 -11z"/>
<path d="M2011 923 c-18 -3 -43 -15 -56 -29 -12 -13 -25 -21 -28 -17 -4 3 -7
-3 -7 -15 0 -20 5 -22 53 -22 28 0 67 -4 84 -9 18 -5 35 -6 38 -2 2 5 18 11
35 14 25 5 30 11 30 35 0 26 -4 30 -51 40 -28 7 -54 11 -57 10 -4 0 -22 -3
-41 -5z"/>
<path d="M5885 896 c-26 -7 -36 -14 -27 -19 6 -5 16 -6 21 -3 5 3 11 -2 13
-12 3 -10 33 -37 66 -59 l61 -41 -22 34 c-12 18 -23 29 -25 24 -2 -5 -13 -1
-25 10 -11 11 -17 23 -12 27 4 5 10 2 12 -4 3 -7 9 -13 14 -13 5 0 2 11 -7 25
-8 13 -13 29 -9 35 8 13 -9 12 -60 -4z"/>
<path d="M363 877 c-25 -5 -43 -16 -43 -23 0 -19 36 -18 44 1 3 8 17 15 31 15
14 0 25 5 25 10 0 11 0 11 -57 -3z"/>
<path d="M1499 809 c-12 -8 -12 -10 0 -18 15 -10 41 -4 41 9 0 13 -26 19 -41
9z"/>
<path d="M5854 811 c7 -11 46 -35 46 -28 0 3 -12 12 -26 22 -15 9 -23 12 -20
6z"/>
<path d="M1730 800 c-12 -8 -11 -10 8 -10 12 0 22 5 22 10 0 13 -11 13 -30 0z"/>
<path d="M1671 781 c-7 -5 -9 -11 -4 -14 4 -3 17 1 28 9 21 16 0 20 -24 5z"/>
<path d="M5910 776 c0 -3 9 -10 20 -16 11 -6 20 -8 20 -6 0 3 -9 10 -20 16
-11 6 -20 8 -20 6z"/>
<path d="M2345 760 c3 -5 18 -10 33 -9 24 0 25 1 7 9 -28 12 -47 12 -40 0z"/>
<path d="M1113 743 c-7 -3 -13 -11 -13 -20 0 -17 41 -14 47 3 4 13 -16 23 -34
17z"/>
<path d="M215 730 c-3 -5 1 -10 9 -10 9 0 16 5 16 10 0 6 -4 10 -9 10 -6 0
-13 -4 -16 -10z"/>
<path d="M2132 668 c-11 -15 2 -58 18 -58 5 0 10 16 10 35 0 36 -10 44 -28 23z"/>
<path d="M947 613 c-3 -5 1 -14 9 -21 12 -10 14 -10 14 2 0 17 -16 30 -23 19z"/>
</g>
</svg>
